SplineFontDB: 3.0
FontName: Spleenmedium
FullName: Spleen medium
FamilyName: Spleen
Weight: Medium
Copyright: Copyright (c) 2018-2019, Frederic Cambus, Johannes Schriewer
UComments: "2019-1-16: Created with FontForge (http://fontforge.org)"
Version: 001.000
ItalicAngle: 0
UnderlinePosition: -102
UnderlineWidth: 51
Ascent: 819
Descent: 205
InvalidEm: 0
woffMajor: 1
woffMinor: 0
LayerCount: 2
Layer: 0 0 "Back" 1
Layer: 1 0 "Fore" 0
XUID: [1021 472 723692600 24024]
StyleMap: 0x0040
FSType: 0
OS2Version: 0
OS2_WeightWidthSlopeOnly: 0
OS2_UseTypoMetrics: 1
CreationTime: 1547675648
ModificationTime: 1547940131
PfmFamily: 49
TTFWeight: 500
TTFWidth: 5
LineGap: 92
VLineGap: 92
Panose: 2 1 6 9 5 0 0 2 0 4
OS2TypoAscent: 0
OS2TypoAOffset: 1
OS2TypoDescent: 0
OS2TypoDOffset: 1
OS2TypoLinegap: 92
OS2WinAscent: 0
OS2WinAOffset: 1
OS2WinDescent: 0
OS2WinDOffset: 1
HheadAscent: 0
HheadAOffset: 1
HheadDescent: 0
HheadDOffset: 1
OS2Vendor: 'PfEd'
MarkAttachClasses: 1
DEI: 91125

StartChar: exclam
Encoding: 33 33 1
Width: 512
VWidth: 0
Flags: W
HStem: 1 94<224 288> 620 20G<224 288>
VStem: 224 64<1 95 193 640>
LayerCount: 2
Back
Fore
SplineSet
224 95 m 1
 288 95 l 1
 288 1 l 1
 224 1 l 1
 224 95 l 1
224 640 m 1
 288 640 l 1
 288 193 l 1
 224 193 l 1
 224 640 l 1
EndSplineSet
Validated: 1
EndChar

StartChar: quotedbl
Encoding: 34 34 2
Width: 512
VWidth: 0
Flags: W
HStem: 447 256<96 160 352 416>
VStem: 96 64<447 703> 352 64<447 703>
LayerCount: 2
Back
Fore
SplineSet
352 703 m 25
 416 703 l 25
 416 447 l 25
 352 447 l 25
 352 703 l 25
96 703 m 25
 160 703 l 25
 160 447 l 25
 96 447 l 25
 96 703 l 25
EndSplineSet
Validated: 1
EndChar

StartChar: numbersign
Encoding: 35 35 3
Width: 512
VWidth: 0
Flags: W
HStem: 0 21G<96 160 352 416> 128 63<32 96 160 352 416 480> 447 64<32 96 160 352 416 480> 619 20G<96 160 352 416>
VStem: 96 64<0 128 191 447 511 639> 352 64<0 128 191 447 511 639>
LayerCount: 2
Back
Fore
SplineSet
96 639 m 1
 160 639 l 1
 160 511 l 1
 352 511 l 1
 352 639 l 1
 416 639 l 1
 416 511 l 1
 480 511 l 1
 480 447 l 1
 416 447 l 1
 416 191 l 1
 480 191 l 1
 480 128 l 1
 416 128 l 1
 416 0 l 1
 352 0 l 1
 352 128 l 1
 160 128 l 1
 160 0 l 1
 96 0 l 1
 96 128 l 1
 32 128 l 1
 32 191 l 1
 96 191 l 1
 96 447 l 1
 32 447 l 1
 32 511 l 1
 96 511 l 1
 96 639 l 1
352 447 m 1
 160 447 l 1
 160 191 l 1
 352 191 l 1
 352 447 l 1
EndSplineSet
Validated: 1
EndChar

StartChar: dollar
Encoding: 36 36 4
Width: 512
VWidth: 0
Flags: W
HStem: 0 64<66 222 286 373.479> 319 64<136.623 222 286 373.479> 575 64<135.839 222 286 446>
VStem: 64 64<390.839 567.36> 222 64<-63 0 64 319 383 575 639 703> 382 64<72.8218 309.501>
LayerCount: 2
Back
Fore
SplineSet
222 703 m 1
 286 703 l 1
 286 639 l 1
 446 639 l 1
 446 575 l 1
 286 575 l 1
 286 383 l 1
 367 383 l 2
 401 383 445 337 446 303 c 0
 447 267 448 206 448 175 c 0
 448 145 447 117 446 81 c 0
 445 47 401 0 367 0 c 2
 286 0 l 1
 286 -63 l 1
 222 -63 l 1
 222 0 l 1
 66 0 l 1
 66 64 l 1
 222 64 l 1
 222 319 l 1
 145 319 l 2
 110 319 64 365 64 399 c 0
 64 471 64 487 64 559 c 0
 64 594 110 639 144 639 c 2
 222 639 l 1
 222 703 l 1
222 575 m 1
 180 575 l 2
 147 575 128 556 128 523 c 0
 128 462 128 497 128 436 c 0
 128 403 147 383 180 383 c 2
 222 383 l 1
 222 575 l 1
286 64 m 1
 328 64 l 2
 362 64 382 85 382 118 c 0
 382 179 382 205 382 266 c 0
 382 299 361 319 328 319 c 2
 286 319 l 1
 286 64 l 1
EndSplineSet
Validated: 1
EndChar

StartChar: percent
Encoding: 37 37 5
Width: 512
VWidth: 0
Flags: W
HStem: 1 21G<81 144.966> 32 32<336 368> 160 32<336 368> 447 32<144 176> 575 32<144 176> 620 20G<358.369 432>
VStem: 80 64<479.89 574.594> 176 64<479.029 574.594> 272 64<64.0293 159.971> 368 64<64.4059 159.971>
LayerCount: 2
Back
Fore
SplineSet
432 640 m 1
 432 597 l 1
 135 1 l 1
 81 1 l 1
 81 44 l 1
 368 640 l 1
 432 640 l 1
368 64 m 5
 368 160 l 1
 336 160 l 1
 336 64 l 5
 368 64 l 5
325 192 m 0
 362 192 343 192 380 192 c 0
 413 192 432 172 432 139 c 0
 432 102 432 121 432 84 c 0
 432 51 413 32 380 32 c 0
 343 32 362 32 325 32 c 0
 292 32 272 52 272 85 c 0
 272 121 272 103 272 139 c 0
 272 172 292 192 325 192 c 0
176 479 m 1
 176 575 l 1
 144 575 l 1
 144 479 l 1
 176 479 l 1
132 607 m 0
 169 607 150 607 187 607 c 0
 220 607 240 588 240 555 c 0
 240 518 240 537 240 500 c 0
 240 467 220 447 187 447 c 0
 150 447 169 447 132 447 c 0
 99 447 80 468 80 501 c 0
 80 537 80 519 80 555 c 0
 80 588 99 607 132 607 c 0
EndSplineSet
Validated: 1
EndChar

StartChar: ampersand
Encoding: 38 38 6
Width: 512
VWidth: 0
Flags: W
HStem: 0 64<104.623 312.109> 256 63<104.623 160> 319 64<288 344.161> 577 64<167.121 342.501>
VStem: 32 64<71.8392 248.143> 95 64<391.07 568.879> 352 64<390.839 568.615>
LayerCount: 2
Back
Fore
SplineSet
148 256 m 2xda
 115 256 96 236 96 203 c 2
 96 117 l 2
 96 84 115 64 148 64 c 2
 267 64 l 2
 300 64 321 84 321 117 c 2
 321 161 l 2
 321 207 271 256 225 256 c 2
 148 256 l 2xda
213 577 m 2
 179 577 159 557 159 523 c 2
 159 436 l 2
 159 403 179 383 212 383 c 2
 300 383 l 2xb6
 333 383 352 403 352 436 c 2
 352 523 l 2
 352 556 332 577 299 577 c 2
 213 577 l 2
368 63 m 1
 368 41 325 0 303 0 c 2
 113 0 l 2
 78 0 32 46 32 80 c 2
 32 240 l 2
 32 274 78 319 113 319 c 2
 160 319 l 1xda
 160 335 l 1
 124 335 95 374 95 400 c 2
 95 559 l 2
 95 593 141 641 175 641 c 2
 336 641 l 2
 370 641 416 593 416 559 c 2
 416 399 l 2
 416 365 370 319 336 319 c 2
 288 319 l 25xb6
 288 304 l 1
 317 304 368 243 368 223 c 1
 369 223 400 256 400 256 c 9
 449 256 l 25xd6
 449 208 l 25
 384 144 l 25
 480 47 l 25
 480 0 l 25
 432 0 l 25
 368 63 l 1
EndSplineSet
Validated: 1
EndChar

StartChar: quotesingle
Encoding: 39 39 7
Width: 512
VWidth: 0
Flags: W
HStem: 447 256<224 288>
VStem: 224 64<447 703>
LayerCount: 2
Back
Fore
SplineSet
224 703 m 25
 288 703 l 25
 288 447 l 25
 224 447 l 25
 224 703 l 25
EndSplineSet
Validated: 1
EndChar

StartChar: parenleft
Encoding: 40 40 8
Width: 512
VWidth: 0
Flags: W
HStem: -128 64<303.937 448> 704 64<309.303 448>
VStem: 80 64<144.434 497.13>
LayerCount: 2
Back
Fore
SplineSet
144 245 m 0
 144 136 256 -64 373 -64 c 0
 400 -64 448 -64 448 -64 c 25
 448 -128 l 25
 448 -128 388 -128 350 -128 c 0
 287 -128 210 -72 161 0 c 0
 112 70 80 146 80 202 c 0
 80 294 80 345 80 437 c 0
 80 494 111 568 160 639 c 0
 212 711 292 768 350 768 c 0
 388 768 448 768 448 768 c 25
 448 704 l 29
 448 704 400 704 373 704 c 4
 323 704 268 658 225 606 c 0
 189 563 144 463 144 406 c 0
 144 337 144 314 144 245 c 0
EndSplineSet
Validated: 1
EndChar

StartChar: parenright
Encoding: 41 41 9
Width: 512
VWidth: 0
Flags: W
HStem: -128 64<80 223.202> 703 64<80 219.291>
VStem: 384 64<144.434 497.13>
LayerCount: 2
Back
Fore
SplineSet
155 -64 m 4
 272 -64 384 136 384 245 c 0
 384 314 384 337 384 406 c 0
 384 463 338 563 302 606 c 0
 259 658 205 703 155 703 c 0
 128 703 80 703 80 703 c 25
 80 767 l 25
 80 767 139 767 177 767 c 0
 235 767 316 711 368 639 c 0
 417 568 448 494 448 437 c 0
 448 345 448 294 448 202 c 0
 448 146 416 70 367 0 c 0
 318 -72 240 -128 177 -128 c 0
 139 -128 80 -128 80 -128 c 25
 80 -64 l 29
 80 -64 128 -64 155 -64 c 4
EndSplineSet
Validated: 1
EndChar

StartChar: asterisk
Encoding: 42 42 10
Width: 512
VWidth: 0
Flags: W
HStem: 256 64<32 193 319 480>
VStem: 96 64<63 95 479 512> 193 126<224 256 320 351> 352 64<63 95 479 512>
CounterMasks: 1 70
LayerCount: 2
Back
Fore
SplineSet
96 512 m 25
 160 512 l 25
 160 479 l 25
 241 399 l 25
 271 399 l 25
 352 479 l 25
 352 512 l 25
 416 512 l 25
 416 447 l 25
 319 351 l 25
 319 320 l 29
 480 320 l 29
 480 256 l 25
 319 256 l 25
 319 224 l 25
 416 128 l 25
 416 63 l 25
 352 63 l 25
 352 95 l 25
 271 176 l 25
 241 176 l 25
 160 95 l 25
 160 63 l 25
 96 63 l 25
 96 127 l 25
 193 224 l 25
 193 256 l 25
 32 256 l 25
 32 320 l 29
 193 320 l 29
 193 351 l 25
 96 447 l 25
 96 512 l 25
EndSplineSet
Validated: 1
EndChar

StartChar: plus
Encoding: 43 43 11
Width: 512
VWidth: 0
Flags: W
HStem: 256 64<96 224 288 416> 427 20G<224 288>
VStem: 224 64<128 256 320 447>
LayerCount: 2
Back
Fore
SplineSet
224 447 m 25
 288 447 l 25
 288 320 l 29
 416 320 l 29
 416 256 l 25
 288 256 l 25
 288 128 l 25
 224 128 l 25
 224 256 l 25
 96 256 l 25
 96 320 l 29
 224 320 l 29
 224 447 l 25
EndSplineSet
Validated: 1
EndChar

StartChar: comma
Encoding: 44 44 12
Width: 512
VWidth: 0
Flags: W
HStem: -64 64<160 214.49>
VStem: 223 64<8.50977 127>
LayerCount: 2
Back
Fore
SplineSet
223 127 m 25
 287 127 l 25
 287 127 287 55 287 15 c 0
 287 -19 242 -64 208 -64 c 0
 192 -64 160 -64 160 -64 c 25
 160 0 l 25
 160 0 160 0 171 0 c 0
 204 0 223 19 223 52 c 0
 223 88 223 127 223 127 c 25
EndSplineSet
Validated: 1
EndChar

StartChar: hyphen
Encoding: 45 45 13
Width: 512
VWidth: 0
Flags: W
HStem: 256 64<64 448>
LayerCount: 2
Back
Fore
SplineSet
64 320 m 5
 448 320 l 5
 448 256 l 1
 64 256 l 1
 64 320 l 5
EndSplineSet
Validated: 513
EndChar

StartChar: period
Encoding: 46 46 14
Width: 512
VWidth: 0
Flags: W
HStem: 0 95<224 288>
VStem: 224 64<0 95>
LayerCount: 2
Back
Fore
SplineSet
224 95 m 1
 288 95 l 1
 288 0 l 1
 224 0 l 1
 224 95 l 1
EndSplineSet
Validated: 1
EndChar

StartChar: slash
Encoding: 47 47 15
Width: 512
VWidth: 0
Flags: W
LayerCount: 2
Back
Fore
SplineSet
480 725 m 1
 480 682 l 1
 86 -86 l 1
 32 -86 l 1
 32 -43 l 1
 416 725 l 1
 480 725 l 1
EndSplineSet
Validated: 1
EndChar

StartChar: zero
Encoding: 48 48 16
Width: 512
VWidth: 0
Flags: W
HStem: 1 64<135.839 376.161> 576 64<135.839 375.49>
VStem: 64 64<72.8392 142 254 567.178> 384 64<72.8392 398 510 567.178>
LayerCount: 2
Back
Fore
SplineSet
144 640 m 0
 229 640 284 640 369 640 c 0
 403 640 448 593 448 559 c 0
 448 374 448 266 448 81 c 0
 448 47 402 1 368 1 c 0
 284 1 228 1 144 1 c 0
 110 1 64 47 64 81 c 0
 64 266 64 374 64 559 c 0
 64 593 110 640 144 640 c 0
180 576 m 0
 147 576 128 556 128 523 c 2
 128 254 l 1
 384 510 l 1
 384 523 l 2
 384 556 365 576 332 576 c 0
 257 576 255 576 180 576 c 0
128 142 m 1
 128 117 l 2
 128 84 148 65 181 65 c 0
 255 65 258 65 332 65 c 0
 365 65 384 84 384 117 c 2
 384 398 l 1
 128 142 l 1
EndSplineSet
Validated: 1
EndChar

StartChar: one
Encoding: 49 49 17
Width: 512
VWidth: 0
Flags: W
HStem: 0 64<96 224 288 416> 620 20G<172.792 288>
VStem: 224 64<64 577>
LayerCount: 2
Back
Fore
SplineSet
96 479 m 25
 96 544 l 25
 193 640 l 25
 288 640 l 25
 288 64 l 29
 416 64 l 29
 416 0 l 25
 96 0 l 25
 96 64 l 29
 224 64 l 29
 224 577 l 25
 128 479 l 25
 96 479 l 25
EndSplineSet
Validated: 1
EndChar

StartChar: two
Encoding: 50 50 18
Width: 512
VWidth: 0
Flags: W
HStem: 0 127<384 448> 0 63<128 384> 575 65<135.839 376.109>
VStem: 64 64<63 95 512 566.666> 384 64<63 127 447 567.178>
LayerCount: 2
Back
Fore
SplineSet
64 512 m 25x78
 64 560 l 2
 64 595 110 640 144 640 c 2
 368 640 l 6
 402 640 445 593 446 559 c 5
 446 432 l 6
 446 420 431 399 416 384 c 4
 303 271 128 95 128 95 c 25
 128 63 l 25
 384 63 l 29x78
 384 127 l 29
 448 127 l 29
 448 0 l 29xb8
 64 0 l 25
 64 128 l 25
 384 447 l 29
 384 523 l 6
 384 556 365 575 332 575 c 6
 180 575 l 2
 147 575 128 556 128 523 c 2
 128 512 l 25
 64 512 l 25x78
EndSplineSet
Validated: 1
EndChar

StartChar: three
Encoding: 51 51 19
Width: 512
VWidth: 0
Flags: W
HStem: 0 64<135.839 375.49> 319 64<160 376.622> 576 64<135.839 376.126>
VStem: 64 64<71.64 127 513 568.87> 384 64<71.8392 311.728 391.019 567.377>
LayerCount: 2
Back
Fore
SplineSet
64 512 m 25
 64 559 l 2
 64 594 110 640 144 640 c 2
 368 640 l 2
 402 640 446 594 446 559 c 2
 446 416 l 2
 446 372 406 356 406 356 c 25
 406 356 448 335 448 288 c 2
 448 80 l 2
 448 46 403 0 369 0 c 2
 144 0 l 2
 110 0 64 45 64 80 c 2
 64 127 l 25
 128 128 l 29
 128 117 l 6
 128 84 147 64 180 64 c 6
 332 64 l 6
 365 64 384 84 384 117 c 6
 384 267 l 2
 384 300 365 319 332 319 c 2
 160 319 l 25
 160 383 l 25
 332 383 l 2
 364 383 384 402 384 435 c 2
 384 524 l 2
 384 557 364 576 331 576 c 2
 180 576 l 2
 147 576 128 557 128 524 c 2
 128 513 l 25
 64 512 l 25
EndSplineSet
Validated: 1
EndChar

StartChar: four
Encoding: 52 52 20
Width: 512
VWidth: 0
Flags: W
HStem: 0 21G<318 382> 192 64<128 318 382 448> 619 20G<64 128>
VStem: 64 64<256 639> 318 64<0 192 256 511>
LayerCount: 2
Back
Fore
SplineSet
64 639 m 1
 128 639 l 1
 128 256 l 1
 318 256 l 1
 318 511 l 1
 382 511 l 1
 382 256 l 1
 448 256 l 1
 448 192 l 1
 382 192 l 1
 382 0 l 1
 318 0 l 1
 318 192 l 1
 233 192 149 192 64 192 c 1
 64 342 64 489 64 639 c 1
EndSplineSet
Validated: 1
EndChar

StartChar: five
Encoding: 53 53 21
Width: 512
VWidth: 0
Flags: W
HStem: 0 64<135.839 374.144> 319 64<128 374.87> 513 127<382 448> 577 63<128 382>
VStem: 64 64<72.345 127 383 577> 382 64<71.8392 310.985 513 577>
LayerCount: 2
Back
Fore
SplineSet
64 127 m 25xdc
 128 127 l 25
 128 116 l 2
 128 83 147 64 180 64 c 2
 330 64 l 2
 363 64 382 83 382 116 c 2
 382 267 l 2
 382 300 363 319 330 319 c 2
 64 319 l 9
 64 640 l 25xdc
 448 640 l 25
 448 513 l 25
 382 513 l 25xec
 382 577 l 25
 128 577 l 25
 128 383 l 1
 366 383 l 2
 390 383 446 346 446 303 c 2
 446 80 l 1
 445 46 400 0 366 0 c 2
 144 0 l 2
 110 0 64 44 64 79 c 2
 64 127 l 25xdc
EndSplineSet
Validated: 1
EndChar

StartChar: six
Encoding: 54 54 22
Width: 512
VWidth: 0
Flags: W
HStem: 0 64<136.51 373.325> 319 64<128 374.161> 576 64<135.839 374.196>
VStem: 64 64<71.8392 319 383 568.856> 382 64<72.6746 311.87 513 568.36>
LayerCount: 2
Back
Fore
SplineSet
128 319 m 25
 128 319 128 204 128 118 c 4
 128 85 147 64 180 64 c 4
 255 64 255 64 330 64 c 4
 363 64 382 84 382 117 c 4
 382 192 382 192 382 267 c 0
 382 300 363 319 330 319 c 0
 243 319 128 319 128 319 c 25
144 640 m 0
 228 640 282 640 366 640 c 0
 400 640 448 595 448 560 c 0
 448 545 448 513 448 513 c 25
 382 513 l 25
 382 513 382 513 382 524 c 0
 382 557 363 576 330 576 c 0
 255 576 255 576 180 576 c 0
 147 576 128 557 128 524 c 0
 128 463 128 383 128 383 c 25
 128 383 275 383 366 383 c 0
 400 383 446 337 446 304 c 0
 446 219 446 164 446 79 c 0
 446 46 400 0 367 0 c 0
 282 0 228 0 143 0 c 0
 109 0 64 46 64 80 c 0
 64 265 64 374 64 559 c 0
 64 593 110 640 144 640 c 0
EndSplineSet
Validated: 1
EndChar

StartChar: seven
Encoding: 55 55 23
Width: 512
VWidth: 0
Flags: W
HStem: 0 21G<192 256> 512 128<64 128> 575 65<128 384>
VStem: 64 64<512 575> 192 64<0 223> 384 64<447 575>
LayerCount: 2
Back
Fore
SplineSet
64 512 m 25xdc
 64 640 l 25xdc
 448 640 l 25
 448 416 l 25
 256 223 l 25
 256 0 l 25
 192 0 l 25
 192 256 l 25
 384 447 l 25
 384 575 l 25
 128 575 l 25xbc
 128 512 l 25
 64 512 l 25xdc
EndSplineSet
Validated: 1
EndChar

StartChar: eight
Encoding: 56 56 24
Width: 512
VWidth: 0
Flags: W
HStem: 0 64<136.068 376.161> 319 64<135.752 376.87> 576 64<135.839 375.49>
VStem: 64 64<72.0684 311.714 390.752 568.161> 384 64<71.8392 311.8 390.286 568.161>
LayerCount: 2
Back
Fore
SplineSet
144 640 m 0
 229 640 284 640 369 640 c 0
 403 640 448 594 448 560 c 2
 448 399 l 2
 448 384 438 366 424 351 c 1
 438 337 448 318 448 303 c 0
 448 118 448 265 448 80 c 0
 448 46 402 0 368 0 c 0
 284 0 228 0 144 0 c 0
 110 0 64 46 64 80 c 0
 64 265 64 118 64 303 c 0
 64 318 74 336 87 351 c 1
 74 366 64 384 64 399 c 2
 64 560 l 2
 64 594 110 640 144 640 c 0
180 576 m 0
 147 576 128 556 128 523 c 2
 128 435 l 2
 128 402 148 383 181 383 c 2
 332 383 l 2
 365 383 384 402 384 435 c 2
 384 523 l 2
 384 556 365 576 332 576 c 0
 257 576 255 576 180 576 c 0
332 319 m 2
 180 319 l 2
 147 319 128 300 128 267 c 2
 128 117 l 6
 128 84 148 64 181 64 c 4
 255 64 258 64 332 64 c 4
 365 64 384 84 384 117 c 6
 384 267 l 2
 384 300 365 319 332 319 c 2
EndSplineSet
Validated: 1
EndChar

StartChar: nine
Encoding: 57 57 25
Width: 512
VWidth: 0
Flags: W
HStem: 0 64<135.839 377.161> 257 64<135.839 385> 576 64<136.675 376.49>
VStem: 64 64<72.6226 128 328.13 567.325> 385 64<71.8392 257 321 568.161>
LayerCount: 2
Back
Fore
SplineSet
385 321 m 25
 385 321 385 436 385 522 c 0
 385 555 366 576 333 576 c 0
 258 576 255 576 180 576 c 0
 147 576 128 556 128 523 c 0
 128 448 128 448 128 373 c 0
 128 340 147 321 180 321 c 0
 267 321 385 321 385 321 c 25
369 0 m 0
 285 0 228 0 144 0 c 0
 110 0 64 46 64 81 c 0
 64 96 64 128 64 128 c 25
 128 128 l 25
 128 128 128 128 128 117 c 0
 128 84 147 64 180 64 c 0
 255 64 258 64 333 64 c 0
 366 64 385 84 385 117 c 0
 385 178 385 257 385 257 c 25
 385 257 235 257 144 257 c 0
 110 257 64 303 64 336 c 0
 64 421 64 476 64 561 c 0
 64 594 110 640 143 640 c 0
 228 640 285 640 370 640 c 0
 404 640 449 594 449 560 c 0
 449 375 449 265 449 80 c 0
 449 46 403 0 369 0 c 0
EndSplineSet
Validated: 1
EndChar

StartChar: colon
Encoding: 58 58 26
Width: 512
VWidth: 0
Flags: W
HStem: 0 95<224 288> 319 96<224 288>
VStem: 224 64<0 95 319 415>
LayerCount: 2
Back
Fore
SplineSet
224 95 m 1
 288 95 l 1
 288 0 l 1
 224 0 l 1
 224 95 l 1
224 415 m 1
 288 415 l 1
 288 319 l 1
 224 319 l 1
 224 415 l 1
EndSplineSet
Validated: 1
EndChar

StartChar: semicolon
Encoding: 59 59 27
Width: 512
VWidth: 0
Flags: W
HStem: -63 63<160 214.513> 319 96<224 288>
VStem: 223 66<7.12951 127 319 415>
LayerCount: 2
Back
Fore
SplineSet
223 127 m 25
 289 127 l 25
 289 127 289 55 289 15 c 0
 289 -19 242 -63 208 -63 c 0
 192 -63 160 -63 160 -63 c 25
 160 0 l 25
 160 0 160 0 171 0 c 0
 204 0 223 19 223 52 c 0
 223 88 223 127 223 127 c 25
224 415 m 1
 288 415 l 1
 288 319 l 1
 224 319 l 1
 224 415 l 1
EndSplineSet
Validated: 1
EndChar

StartChar: less
Encoding: 60 60 28
Width: 512
VWidth: 0
Flags: W
HStem: 0 21G<328.665 446>
VStem: 64 96<257 321>
LayerCount: 2
Back
Fore
SplineSet
351 579 m 29
 448 579 l 29
 160 321 l 25
 160 257 l 25
 446 0 l 29
 351 0 l 29
 64 257 l 25
 64 321 l 25
 351 579 l 29
EndSplineSet
Validated: 513
EndChar

StartChar: equal
Encoding: 61 61 29
Width: 512
VWidth: 0
Flags: W
HStem: 179 64<63 449> 372 63<63 449>
LayerCount: 2
Back
Fore
SplineSet
63 243 m 1
 449 243 l 1
 449 179 l 1
 63 179 l 1
 63 243 l 1
63 435 m 1
 449 435 l 1
 449 372 l 1
 63 372 l 1
 63 435 l 1
EndSplineSet
Validated: 1
EndChar

StartChar: greater
Encoding: 62 62 30
Width: 512
VWidth: 0
Flags: W
HStem: 0 21G<66 183.335>
VStem: 352 96<257 321>
LayerCount: 2
Back
Fore
SplineSet
161 579 m 25
 448 321 l 29
 448 257 l 29
 161 0 l 25
 66 0 l 25
 352 257 l 25
 352 321 l 25
 64 579 l 25
 161 579 l 25
EndSplineSet
Validated: 513
EndChar

StartChar: question
Encoding: 63 63 31
Width: 512
VWidth: 0
Flags: W
HStem: 0 95<224 288> 576 64<135.839 376.161>
VStem: 64 64<513 568.36> 224 64<0 95 191 304.995> 384 64<442.501 567.178>
CounterMasks: 1 38
LayerCount: 2
Back
Fore
SplineSet
144 640 m 0
 228 640 284 640 368 640 c 0
 402 640 448 593 448 559 c 0
 448 519 448 513 448 473 c 0
 448 440 389 389 352 351 c 0
 304 301 288 291 288 225 c 0
 288 213 288 191 288 191 c 25
 224 191 l 25
 224 191 224 231 224 255 c 0
 224 277 243 320 272 351 c 0
 314 396 384 452 384 479 c 0
 384 498 384 493 384 523 c 0
 384 556 365 576 332 576 c 4
 257 576 255 576 180 576 c 4
 147 576 128 557 128 524 c 4
 128 513 128 513 128 513 c 29
 64 513 l 29
 64 513 64 545 64 560 c 4
 64 595 110 640 144 640 c 0
224 95 m 1
 288 95 l 1
 288 0 l 1
 224 0 l 1
 224 95 l 1
EndSplineSet
Validated: 1
EndChar

StartChar: at
Encoding: 64 64 32
Width: 512
VWidth: 0
Flags: W
HStem: 0 64<135.839 417> 160 64<320 384> 512 64<135.839 376.161>
VStem: 64 64<71.7188 503.655> 224 96<224 416> 384 64<224 503.49>
LayerCount: 2
Back
Fore
SplineSet
144 576 m 0
 228 576 284 576 368 576 c 0
 402 576 448 531 448 497 c 0
 448 368 448 160 448 160 c 25
 224 160 l 25
 224 416 l 25
 320 416 l 25
 320 224 l 25
 384 224 l 25
 384 224 384 360 384 459 c 0
 384 493 364 512 331 512 c 0
 257 512 254 512 180 512 c 0
 147 512 128 492 128 459 c 0
 128 311 128 266 128 118 c 0
 128 85 147 64 180 64 c 0
 279 64 417 64 417 64 c 25
 417 0 l 25
 417 0 247 0 144 0 c 0
 110 0 64 45 64 80 c 0
 64 160 64 223 64 288 c 0
 64 353 64 417 64 497 c 0
 64 532 110 576 144 576 c 0
EndSplineSet
Validated: 1
EndChar

StartChar: A
Encoding: 65 65 33
Width: 512
VWidth: 0
Flags: W
HStem: 0 21G<64 128 384 448> 288 64<128 384> 576 64<136.822 375.49>
VStem: 64 64<0 288 352 567.49> 384 64<0 288 352 568.161>
LayerCount: 2
Back
Fore
SplineSet
128 352 m 29
 384 352 l 29
 384 523 l 2
 384 556 365 576 332 576 c 2
 182 576 l 2
 148 576 128 557 128 523 c 2
 128 352 l 29
64 0 m 25
 64 561 l 2
 64 595 111 640 145 640 c 2
 369 640 l 2
 403 640 448 594 448 560 c 2
 448 0 l 1
 384 0 l 1
 384 288 l 5
 128 288 l 5
 128 0 l 1
 64 0 l 25
EndSplineSet
Validated: 1
EndChar

StartChar: B
Encoding: 66 66 34
Width: 512
VWidth: 0
Flags: W
HStem: 1 64<128 375.49> 320 64<129 376.248> 576 64<129 375.49>
VStem: 64 64<65 320 384 576> 384 64<73.0384 312.156 391.642 568.161>
LayerCount: 2
Back
Fore
SplineSet
128 65 m 25
 332 65 l 2
 365 65 384 85 384 118 c 2
 384 266 l 2
 384 299 365 320 332 320 c 2
 128 320 l 25
 128 65 l 25
129 384 m 25
 332 384 l 2
 365 384 384 404 384 437 c 2
 384 523 l 2
 384 556 365 576 332 576 c 2
 129 576 l 25
 129 384 l 25
64 1 m 25
 64 640 l 25
 369 640 l 2
 403 640 448 594 448 560 c 2
 448 418 l 2
 448 371 403 357 403 352 c 0
 403 347 448 334 448 288 c 2
 448 81 l 2
 448 48 403 1 369 1 c 2
 64 1 l 25
EndSplineSet
Validated: 1
EndChar

StartChar: C
Encoding: 67 67 35
Width: 512
VWidth: 0
Flags: W
HStem: 1 64<135.144 448> 576 64<137.499 448>
VStem: 64 64<73.5098 566.501>
LayerCount: 2
Back
Fore
SplineSet
64 80 m 0
 64 265 64 375 64 560 c 0
 64 594 110 640 144 640 c 0
 260 640 448 640 448 640 c 25
 448 576 l 25
 448 576 294 576 182 576 c 0
 148 576 128 555 128 522 c 0
 128 348 128 291 128 117 c 0
 128 84 147 65 180 65 c 0
 292 65 448 65 448 65 c 25
 448 1 l 25
 448 1 261 1 145 1 c 0
 111 1 64 46 64 80 c 0
EndSplineSet
Validated: 1
EndChar

StartChar: D
Encoding: 68 68 36
Width: 512
VWidth: 0
Flags: W
HStem: 0 64<128 376.36> 576 64<128 375.49>
VStem: 64 64<64 576> 384 64<72.8218 567.178>
LayerCount: 2
Back
Fore
SplineSet
128 576 m 25
 128 64 l 25
 128 64 245 64 331 64 c 0
 364 64 384 83 384 116 c 0
 384 282 384 348 384 522 c 0
 384 555 365 576 332 576 c 0
 245 576 128 576 128 576 c 25
64 640 m 25
 64 640 252 640 369 640 c 0
 403 640 448 593 448 559 c 0
 448 374 448 266 448 81 c 0
 448 47 403 0 368 0 c 0
 252 0 64 0 64 0 c 25
 64 640 l 25
EndSplineSet
Validated: 1
EndChar

StartChar: E
Encoding: 69 69 37
Width: 512
VWidth: 0
Flags: W
HStem: 0 64<135.839 448> 288 64<128 351> 576 64<135.839 448>
VStem: 64 64<71.8392 288 352 568.161>
CounterMasks: 1 e0
LayerCount: 2
Back
Fore
SplineSet
144 640 m 0
 260 640 448 640 448 640 c 25
 448 576 l 25
 448 576 282 576 181 576 c 0
 147 576 128 555 128 522 c 0
 128 448 128 352 128 352 c 25
 351 352 l 25
 351 288 l 25
 128 288 l 25
 128 288 128 191 128 117 c 4
 128 84 147 64 180 64 c 4
 292 64 448 64 448 64 c 29
 448 0 l 29
 448 0 260 0 144 0 c 4
 110 0 64 46 64 80 c 4
 64 265 64 375 64 560 c 0
 64 594 110 640 144 640 c 0
EndSplineSet
Validated: 1
EndChar

StartChar: F
Encoding: 70 70 38
Width: 512
VWidth: 0
Flags: W
HStem: 0 21G<64 128> 288 64<128 353> 576 64<137.499 448>
VStem: 64 64<0 288 352 568.161>
LayerCount: 2
Back
Fore
SplineSet
144 640 m 0
 260 640 448 640 448 640 c 25
 448 576 l 25
 448 576 293 576 181 576 c 0
 147 576 128 555 128 521 c 0
 128 447 128 352 128 352 c 25
 353 352 l 25
 353 288 l 29
 128 288 l 29
 128 0 l 25
 64 0 l 25
 64 0 64 343 64 560 c 0
 64 594 110 640 144 640 c 0
EndSplineSet
Validated: 1
EndChar

StartChar: G
Encoding: 71 71 39
Width: 512
VWidth: 0
Flags: W
HStem: 0 64<136.51 384> 288 64<256 384> 577 64<135.64 446>
VStem: 64 64<71.8392 568.178> 384 64<64 288>
LayerCount: 2
Back
Fore
SplineSet
144 641 m 0
 260 641 446 641 446 641 c 29
 446 577 l 29
 446 577 293 577 182 577 c 0
 148 577 128 558 128 524 c 0
 128 350 128 283 128 117 c 0
 128 84 147 64 180 64 c 0
 267 64 384 64 384 64 c 25
 384 288 l 25
 256 288 l 25
 256 352 l 25
 448 352 l 29
 448 0 l 29
 448 0 260 0 143 0 c 0
 109 0 64 46 64 80 c 0
 64 265 64 375 64 560 c 0
 64 594 109 641 144 641 c 0
EndSplineSet
Validated: 1
EndChar

StartChar: H
Encoding: 72 72 40
Width: 512
VWidth: 0
Flags: W
HStem: 1 21G<64 128 384 448> 288 64<128 384> 620 20G<64 128 384 448>
VStem: 64 64<1 288 352 640> 384 64<1 288 352 640>
LayerCount: 2
Back
Fore
SplineSet
64 640 m 25
 128 640 l 25
 128 352 l 25
 384 352 l 25
 384 640 l 25
 448 640 l 25
 448 1 l 25
 384 1 l 25
 384 288 l 25
 128 288 l 25
 128 1 l 25
 64 1 l 25
 64 640 l 25
EndSplineSet
Validated: 1
EndChar

StartChar: I
Encoding: 73 73 41
Width: 500
VWidth: 0
Flags: W
HStem: 0 64<94 218 282 406> 561 64<94 218 282 406>
VStem: 218 64<64 561>
LayerCount: 2
Back
Fore
SplineSet
94 625 m 25
 406 625 l 25
 406 561 l 25
 282 561 l 29
 282 64 l 29
 406 64 l 25
 406 0 l 25
 94 0 l 25
 94 64 l 25
 218 64 l 25
 218 561 l 25
 94 561 l 25
 94 625 l 25
EndSplineSet
Validated: 1
EndChar

StartChar: J
Encoding: 74 74 42
Width: 512
VWidth: 0
Flags: W
HStem: 0 64<32 216.161> 576 64<96 224 288 418>
VStem: 224 64<71.8392 576>
LayerCount: 2
Back
Fore
SplineSet
96 640 m 25
 418 640 l 25
 418 576 l 25
 288 576 l 25
 288 576 288 271 288 80 c 0
 288 46 242 0 208 0 c 0
 142 0 32 0 32 0 c 25
 32 64 l 25
 32 64 111 64 172 64 c 0
 205 64 224 83 224 116 c 0
 224 303 224 576 224 576 c 25
 96 576 l 25
 96 640 l 25
EndSplineSet
Validated: 1
EndChar

StartChar: K
Encoding: 75 75 43
Width: 512
VWidth: 0
Flags: W
HStem: 0 21G<64 128 384 448> 288 64<128 305> 619 20G<64 128 384 448>
VStem: 64 64<0 288 352 639> 384 64<0 207 432 639>
LayerCount: 2
Back
Fore
SplineSet
64 639 m 25
 128 639 l 25
 128 352 l 25
 305 352 l 25
 384 432 l 25
 384 639 l 25
 448 639 l 25
 448 416 l 25
 352 320 l 25
 448 223 l 25
 448 0 l 25
 384 0 l 25
 384 207 l 25
 305 288 l 25
 128 288 l 25
 128 0 l 25
 64 0 l 25
 64 639 l 25
EndSplineSet
Validated: 1
EndChar

StartChar: L
Encoding: 76 76 44
Width: 509
VWidth: 0
Flags: W
HStem: 0 64<135.839 445> 619 20G<64 128>
VStem: 64 64<71.8392 639>
LayerCount: 2
Back
Fore
SplineSet
64 639 m 29
 128 639 l 29
 128 117 l 6
 128 84 147 64 180 64 c 6
 445 64 l 29
 445 0 l 29
 144 0 l 6
 110 0 64 46 64 80 c 6
 64 639 l 29
EndSplineSet
Validated: 1
EndChar

StartChar: M
Encoding: 77 77 45
Width: 512
VWidth: 0
Flags: W
HStem: 0 21G<64 128 384 448> 620 20G<64 144.315 366.819 448>
VStem: 64 64<0 548> 384 64<0 549>
LayerCount: 2
Back
Fore
SplineSet
64 640 m 29
 127 640 l 29
 256 491 l 29
 384 640 l 29
 448 640 l 29
 448 0 l 29
 384 0 l 29
 384 549 l 29
 271 416 l 29
 241 416 l 29
 128 548 l 29
 128 0 l 29
 64 0 l 29
 64 640 l 29
EndSplineSet
Validated: 1
EndChar

StartChar: N
Encoding: 78 78 46
Width: 512
VWidth: 0
Flags: W
HStem: 1 21G<64 128 373.289 448> 621 20G<64 137.981 384 448>
VStem: 64 64<1 479> 384 64<128 641>
LayerCount: 2
Back
Fore
SplineSet
64 641 m 25
 128 641 l 25
 384 128 l 29
 384 641 l 29
 448 641 l 29
 448 1 l 29
 384 1 l 29
 128 479 l 25
 128 1 l 25
 64 1 l 25
 64 641 l 25
EndSplineSet
Validated: 1
EndChar

StartChar: O
Encoding: 79 79 47
Width: 512
VWidth: 0
Flags: W
HStem: 1 62<136.038 375.962> 563 62<136.038 376.917>
VStem: 64 64<71.0731 554.927> 384 64<71.0731 554.927>
LayerCount: 2
Back
Fore
SplineSet
179 563 m 2
 147 563 128 544 128 512 c 2
 128 114 l 2
 128 82 148 63 180 63 c 2
 333 63 l 6
 365 63 384 82 384 114 c 6
 384 512 l 6
 384 544 365 563 333 563 c 6
 179 563 l 2
144 625 m 2
 369 625 l 6
 402 625 448 580 448 547 c 6
 448 79 l 6
 448 46 401 1 368 1 c 6
 144 1 l 2
 111 1 64 46 64 79 c 2
 64 547 l 2
 64 580 111 625 144 625 c 2
EndSplineSet
Validated: 1
EndChar

StartChar: P
Encoding: 80 80 48
Width: 512
VWidth: 0
Flags: W
HStem: 1 21G<64 128> 288 64<128 376.161> 577 64<128 376.161>
VStem: 64 64<1 288 352 577> 384 64<360.822 568.377>
LayerCount: 2
Back
Fore
SplineSet
128 577 m 25
 128 352 l 25
 128 352 245 352 332 352 c 0
 365 352 384 373 384 406 c 0
 384 467 384 463 384 524 c 0
 384 557 365 577 332 577 c 0
 245 577 128 577 128 577 c 25
64 641 m 25
 64 641 252 641 368 641 c 0
 402 641 448 595 448 560 c 0
 448 488 448 441 448 369 c 0
 448 335 402 288 368 288 c 0
 277 288 128 288 128 288 c 25
 128 1 l 25
 64 1 l 25
 64 641 l 25
EndSplineSet
Validated: 1
EndChar

StartChar: Q
Encoding: 81 81 49
Width: 512
VWidth: 0
Flags: W
HStem: 0 64<135.839 275 368 376.161> 576 64<135.839 375.49>
VStem: 64 64<71.8392 567.178> 384 64<70.1689 567.178>
LayerCount: 2
Back
Fore
SplineSet
180 576 m 2
 147 576 128 556 128 523 c 2
 128 116 l 2
 128 83 148 64 181 64 c 2
 275 64 l 1
 223 192 l 1
 288 192 l 1
 338 64 l 1
 365 64 384 83 384 116 c 2
 384 523 l 2
 384 556 365 576 332 576 c 2
 180 576 l 2
417 -128 m 1
 352 -128 l 1
 301 0 l 1
 144 0 l 2
 110 0 64 46 64 80 c 2
 64 559 l 2
 64 593 110 640 144 640 c 2
 369 640 l 2
 403 640 448 593 448 559 c 2
 448 80 l 2
 448 46 402 0 368 0 c 1
 417 -128 l 1
EndSplineSet
Validated: 1
EndChar

StartChar: R
Encoding: 82 82 50
Width: 512
VWidth: 0
Flags: W
HStem: 0 21G<64 128 384 448> 287 64<128 316.736> 576 64<128 376.161>
VStem: 64 64<0 287 351 576> 384 64<360.392 567.377>
LayerCount: 2
Back
Fore
SplineSet
386 255 m 0
 412 157 448 0 448 0 c 1
 384 0 l 1
 384 0 343 168 323 249 c 0
 314 285 286 287 251 287 c 0
 210 287 169 287 128 287 c 1
 128 0 l 1
 64 0 l 1
 64 640 l 1
 368 640 l 2
 402 640 448 594 448 559 c 2
 448 378 l 2
 448 319 384 312 384 269 c 0
 384 265 385 260 386 255 c 0
128 576 m 1
 128 351 l 1
 332 351 l 2
 365 351 384 372 384 405 c 2
 384 523 l 2
 384 556 365 576 332 576 c 2
 128 576 l 1
EndSplineSet
Validated: 1
EndChar

StartChar: S
Encoding: 83 83 51
Width: 512
VWidth: 0
Flags: W
HStem: 0 64<66 376.161> 288 64<137.334 375.932> 576 64<136.51 446>
VStem: 64 64<360.822 567.377> 384 64<71.8392 279.178>
CounterMasks: 1 e0
LayerCount: 2
Back
Fore
SplineSet
143 640 m 0
 259 640 446 640 446 640 c 25
 446 576 l 25
 446 576 292 576 180 576 c 0
 147 576 128 556 128 523 c 0
 128 462 128 467 128 406 c 0
 128 373 147 352 180 352 c 0
 260 352 290 352 368 352 c 0
 402 352 446 305 447 271 c 0
 448 235 448 206 448 175 c 0
 448 145 448 116 448 80 c 0
 448 46 402 0 368 0 c 0
 252 0 66 0 66 0 c 25
 66 64 l 25
 66 64 219 64 331 64 c 0
 365 64 384 84 384 117 c 0
 384 178 384 174 384 235 c 0
 384 268 364 288 331 288 c 0
 251 288 222 288 144 288 c 0
 109 288 64 335 64 369 c 0
 64 441 64 487 64 559 c 0
 64 594 109 640 143 640 c 0
EndSplineSet
Validated: 1
EndChar

StartChar: T
Encoding: 84 84 52
Width: 512
VWidth: 0
Flags: W
HStem: 0 21G<224 288> 576 64<32 224 288 480>
VStem: 224 64<0 576>
LayerCount: 2
Back
Fore
SplineSet
32 640 m 25
 480 640 l 25
 480 576 l 25
 288 576 l 25
 288 0 l 25
 224 0 l 25
 224 576 l 25
 32 576 l 25
 32 640 l 25
EndSplineSet
Validated: 1
EndChar

StartChar: U
Encoding: 85 85 53
Width: 512
VWidth: 0
Flags: W
HStem: 0 64<135.839 384> 620 20G<64 128 384 448>
VStem: 64 64<71.8392 640> 384 64<64 640>
LayerCount: 2
Back
Fore
SplineSet
64 640 m 25
 128 640 l 25
 128 116 l 2
 128 83 147 64 180 64 c 2
 384 64 l 25
 384 640 l 25
 448 640 l 25
 448 0 l 25
 144 0 l 2
 110 0 64 46 64 80 c 2
 64 640 l 25
EndSplineSet
Validated: 1
EndChar

StartChar: V
Encoding: 86 86 54
Width: 512
VWidth: 0
Flags: W
HStem: 0 21G<204.179 308.821> 619 20G<64 128 384 448>
VStem: 64 64<170.303 639> 384 64<169.223 639>
LayerCount: 2
Back
Fore
SplineSet
224 0 m 2
 113 112 l 2
 98 127 64 165 64 192 c 2
 64 639 l 25
 128 639 l 25
 128 212 l 2
 128 190 158 161 176 143 c 24
 207 112 257 64 257 64 c 1
 257 64 305 113 337 143 c 0
 356 161 384 190 384 212 c 2
 384 639 l 25
 448 639 l 25
 448 192 l 2
 448 166 415 127 400 112 c 2
 289 0 l 2
 224 0 l 2
EndSplineSet
Validated: 1
EndChar

StartChar: W
Encoding: 87 87 55
Width: 512
VWidth: 0
Flags: W
HStem: 0 21G<64 144.2 366.933 448> 620 20G<64 128 384 448>
VStem: 64 64<92 640> 384 64<91 640>
LayerCount: 2
Back
Fore
SplineSet
64 0 m 25
 64 640 l 25
 128 640 l 25
 128 92 l 25
 241 224 l 25
 271 224 l 25
 384 91 l 25
 384 640 l 25
 448 640 l 25
 448 0 l 25
 384 0 l 25
 256 150 l 25
 127 0 l 25
 64 0 l 25
EndSplineSet
Validated: 1
EndChar

StartChar: X
Encoding: 88 88 56
Width: 512
VWidth: 0
Flags: W
HStem: 0 21G<64 128 384 448> 287 64<203 310> 619 20G<64 128 384 448>
VStem: 64 64<0 213 426 639> 384 64<0 213 426 640>
LayerCount: 2
Back
Fore
SplineSet
64 639 m 25
 128 639 l 25
 128 426 l 25
 203 351 l 25
 310 351 l 25
 384 426 l 25
 384 640 l 25
 448 640 l 25
 448 399 l 25
 368 320 l 25
 448 240 l 25
 448 0 l 25
 384 0 l 25
 384 213 l 25
 310 287 l 25
 203 287 l 25
 128 213 l 25
 128 0 l 25
 64 0 l 25
 64 240 l 25
 144 320 l 25
 64 399 l 25
 64 639 l 25
EndSplineSet
Validated: 1
EndChar

StartChar: Y
Encoding: 89 89 57
Width: 512
VWidth: 0
Flags: W
HStem: 0 64<64 376.161> 288 64<135.839 384> 620 20G<64 128 384 448>
VStem: 64 64<360.822 640> 384 64<71.8392 288 352 640>
LayerCount: 2
Back
Fore
SplineSet
64 640 m 25
 128 640 l 25
 128 640 128 505 128 406 c 4
 128 373 147 352 180 352 c 4
 267 352 384 352 384 352 c 29
 384 640 l 25
 448 640 l 25
 448 640 448 297 448 80 c 0
 448 46 402 0 368 0 c 0
 252 0 64 0 64 0 c 25
 64 64 l 25
 64 64 220 64 332 64 c 0
 365 64 384 83 384 116 c 0
 384 191 384 288 384 288 c 29
 384 288 235 288 144 288 c 4
 110 288 64 335 64 369 c 4
 64 472 64 640 64 640 c 25
EndSplineSet
Validated: 1
EndChar

StartChar: Z
Encoding: 90 90 58
Width: 512
VWidth: 0
Flags: W
HStem: 1 64<128 448> 577 64<64 384>
VStem: 64 64<65 129> 384 64<480 577>
LayerCount: 2
Back
Fore
SplineSet
64 641 m 25
 448 641 l 29
 448 449 l 29
 128 129 l 25
 128 65 l 25
 448 65 l 29
 448 1 l 29
 64 1 l 25
 64 161 l 25
 384 480 l 29
 384 577 l 29
 64 577 l 25
 64 641 l 25
EndSplineSet
Validated: 1
EndChar

StartChar: bracketleft
Encoding: 91 91 59
Width: 512
VWidth: 0
Flags: W
HStem: -128 64<192 449> 704 64<192 449>
VStem: 128 64<-64 704>
LayerCount: 2
Back
Fore
SplineSet
128 768 m 25
 449 768 l 25
 449 704 l 25
 192 704 l 29
 192 -64 l 29
 449 -64 l 25
 449 -128 l 25
 128 -128 l 25
 128 768 l 25
EndSplineSet
Validated: 1
EndChar

StartChar: backslash
Encoding: 92 92 60
Width: 512
VWidth: 0
Flags: W
LayerCount: 2
Back
Fore
SplineSet
32 725 m 1
 96 725 l 1
 480 -43 l 1
 480 -86 l 1
 426 -86 l 1
 32 682 l 1
 32 725 l 1
EndSplineSet
Validated: 1
EndChar

StartChar: bracketright
Encoding: 93 93 61
Width: 512
VWidth: 0
Flags: W
HStem: -128 64<64 320> 704 64<64 320>
VStem: 320 64<-64 704>
LayerCount: 2
Back
Fore
SplineSet
384 768 m 25
 384 -128 l 25
 64 -128 l 25
 64 -64 l 25
 320 -64 l 25
 320 704 l 29
 64 704 l 29
 64 768 l 25
 384 768 l 25
EndSplineSet
Validated: 1
EndChar

StartChar: asciicircum
Encoding: 94 94 62
Width: 512
VWidth: 0
Flags: W
HStem: 625 66<240 272>
VStem: 94 324
LayerCount: 2
Back
Fore
SplineSet
94 527 m 29
 94 560 l 25
 224 691 l 25
 288 691 l 25
 418 560 l 25
 418 527 l 29
 370 527 l 29
 272 625 l 29
 240 625 l 29
 141 527 l 29
 94 527 l 29
EndSplineSet
Validated: 1
EndChar

StartChar: underscore
Encoding: 95 95 63
Width: 512
VWidth: 0
Flags: W
HStem: -128 64<32 480>
LayerCount: 2
Back
Fore
SplineSet
32 -64 m 5
 480 -64 l 5
 480 -128 l 1
 32 -128 l 1
 32 -64 l 5
EndSplineSet
Validated: 1
EndChar

StartChar: grave
Encoding: 96 96 64
Width: 512
VWidth: 0
Flags: W
HStem: 500 160
VStem: 180 162
LayerCount: 2
Back
Fore
SplineSet
180 660 m 25
 218 660 l 25
 342 547 l 25
 342 500 l 25
 298 500 l 25
 180 607 l 25
 180 660 l 25
EndSplineSet
Validated: 1
EndChar

StartChar: a
Encoding: 97 97 65
Width: 512
VWidth: 0
Flags: W
HStem: 0 64<135.839 384> 224 64<135.839 384> 384 64<96 376.161>
VStem: 64 64<72.8218 216.36> 384 64<64 224 288 376.161>
LayerCount: 2
Back
Fore
SplineSet
180 224 m 2
 147 224 128 204 128 171 c 2
 128 117 l 2
 128 84 147 64 180 64 c 2
 384 64 l 29
 384 224 l 29
 180 224 l 2
96 448 m 25
 368 448 l 6
 402 448 448 402 448 368 c 6
 448 0 l 29
 144 0 l 2
 110 0 64 47 64 81 c 2
 64 208 l 2
 64 243 110 288 144 288 c 2
 384 288 l 29
 384 332 l 6
 384 366 365 384 332 384 c 6
 96 384 l 25
 96 448 l 25
EndSplineSet
Validated: 1
EndChar

StartChar: b
Encoding: 98 98 66
Width: 512
VWidth: 0
Flags: W
HStem: 0 64<128 376.161> 384 64<128 376.161> 620 20G<64 128>
VStem: 64 64<64 384 448 640> 384 64<72.8218 376.161>
LayerCount: 2
Back
Fore
SplineSet
128 384 m 25
 128 64 l 25
 128 64 245 64 332 64 c 0
 365 64 384 85 384 118 c 0
 384 217 384 232 384 331 c 0
 384 364 365 384 332 384 c 0
 245 384 128 384 128 384 c 25
64 640 m 25
 128 640 l 25
 128 448 l 29
 128 448 277 448 368 448 c 4
 402 448 448 402 448 368 c 0
 448 258 448 191 448 81 c 0
 448 47 402 0 368 0 c 0
 252 0 64 0 64 0 c 25
 64 640 l 25
EndSplineSet
Validated: 1
EndChar

StartChar: c
Encoding: 99 99 67
Width: 512
VWidth: 0
Flags: W
HStem: 0 64<135.839 448> 384 64<136.51 448>
VStem: 64 64<72.8218 375.49>
LayerCount: 2
Back
Fore
SplineSet
143 448 m 0
 259 448 448 448 448 448 c 25
 448 384 l 25
 448 384 292 384 180 384 c 0
 147 384 128 365 128 332 c 0
 128 233 128 216 128 117 c 4
 128 84 147 64 180 64 c 4
 292 64 448 64 448 64 c 29
 448 0 l 25
 448 0 260 0 144 0 c 0
 110 0 64 47 64 81 c 4
 64 191 64 259 64 369 c 0
 64 403 109 448 143 448 c 0
EndSplineSet
Validated: 1
EndChar

StartChar: d
Encoding: 100 100 68
Width: 512
VWidth: 0
Flags: W
HStem: 0 64<135.839 384> 384 64<135.839 384> 620 20G<384 448>
VStem: 64 64<72.8218 376.161> 384 64<64 384 448 640>
LayerCount: 2
Back
Fore
SplineSet
384 384 m 25
 384 384 267 384 180 384 c 0
 147 384 128 364 128 331 c 0
 128 232 128 217 128 118 c 0
 128 85 147 64 180 64 c 0
 267 64 384 64 384 64 c 25
 384 384 l 25
448 640 m 25
 448 0 l 25
 448 0 260 0 144 0 c 0
 110 0 64 47 64 81 c 0
 64 191 64 258 64 368 c 0
 64 402 110 448 144 448 c 0
 235 448 384 448 384 448 c 25
 384 640 l 25
 448 640 l 25
EndSplineSet
Validated: 1
EndChar

StartChar: e
Encoding: 101 101 69
Width: 512
VWidth: 0
Flags: W
HStem: 0 64<135.839 448> 172 64<128 384> 384 64<136.51 384>
VStem: 64 64<72.8218 172 236 376.161> 384 64<236 384>
LayerCount: 2
Back
Fore
SplineSet
180 384 m 0
 147 384 128 364 128 331 c 0
 128 294 128 236 128 236 c 25
 384 236 l 25
 384 384 l 25
 384 384 267 384 180 384 c 0
143 448 m 0
 259 448 448 448 448 448 c 25
 448 172 l 25
 128 172 l 25
 128 172 128 154 128 117 c 4
 128 84 147 64 180 64 c 4
 292 64 448 64 448 64 c 29
 448 0 l 25
 448 0 260 0 144 0 c 0
 110 0 64 47 64 81 c 4
 64 191 64 258 64 368 c 0
 64 402 109 448 143 448 c 0
EndSplineSet
Validated: 1
EndChar

StartChar: f
Encoding: 102 102 70
Width: 512
VWidth: 0
Flags: W
HStem: 0 21G<160 224> 384 64<96 160 224 353> 576 64<231.839 416>
VStem: 160 64<0 384 448 568.576>
LayerCount: 2
Back
Fore
SplineSet
240 640 m 0
 306 640 416 640 416 640 c 25
 416 576 l 25
 416 576 337 576 276 576 c 0
 243 576 223 556 223 523 c 0
 223 462 223 448 223 448 c 25
 353 448 l 25
 353 384 l 25
 224 384 l 25
 224 0 l 25
 160 0 l 25
 160 384 l 25
 96 384 l 25
 96 448 l 25
 160 448 l 25
 160 448 160 493 160 559 c 0
 160 593 206 640 240 640 c 0
EndSplineSet
Validated: 1
EndChar

StartChar: g
Encoding: 103 103 71
Width: 512
VWidth: 0
Flags: W
HStem: -205 64<64 376.161> 0 64<137.334 376.248> 384 64<136.51 384>
VStem: 64 64<72.8218 376.161> 384 64<-134.138 -7.39062 71.9219 384>
LayerCount: 2
Back
Fore
SplineSet
180 384 m 0
 147 384 128 364 128 331 c 0
 128 232 128 217 128 118 c 0
 128 85 147 64 180 64 c 0
 254 64 258 64 332 64 c 0
 365 64 384 84 384 117 c 0
 384 229 384 384 384 384 c 25
 384 384 267 384 180 384 c 0
143 448 m 4
 259 448 448 448 448 448 c 29
 448 448 448 232 448 97 c 0
 448 62 405 31 405 31 c 25
 405 31 448 3 448 -32 c 0
 448 -61 448 -97 448 -126 c 0
 448 -170 402 -205 368 -205 c 0
 252 -205 64 -205 64 -205 c 25
 64 -141 l 25
 64 -141 221 -141 333 -141 c 0
 366 -141 384 -122 384 -89 c 0
 384 -65 384 -77 384 -53 c 0
 384 -19 366 0 333 0 c 0
 253 0 222 0 144 0 c 0
 109 0 64 47 64 81 c 0
 64 191 64 258 64 368 c 0
 64 402 109 448 143 448 c 4
EndSplineSet
Validated: 1
EndChar

StartChar: h
Encoding: 104 104 72
Width: 512
VWidth: 0
Flags: W
HStem: 0 21G<64 128 384 448> 384 64<128 376.161> 620 20G<64 128>
VStem: 64 64<0 384 448 640> 384 64<0 376.161>
LayerCount: 2
Back
Fore
SplineSet
64 640 m 25
 128 640 l 25
 128 448 l 25
 128 448 277 448 368 448 c 0
 402 448 448 402 448 368 c 0
 448 227 448 0 448 0 c 25
 384 0 l 25
 384 0 384 195 384 331 c 0
 384 364 365 384 332 384 c 0
 245 384 128 384 128 384 c 25
 128 0 l 25
 64 0 l 25
 64 640 l 25
EndSplineSet
Validated: 1
EndChar

StartChar: i
Encoding: 105 105 73
Width: 512
VWidth: 0
Flags: W
HStem: 0 60<160 224 288 352> 427 20G<224 288> 559 80<224 288>
VStem: 224 64<60 447 559 639>
LayerCount: 2
Back
Fore
SplineSet
224 639 m 1
 288 639 l 1
 288 559 l 1
 224 559 l 1
 224 639 l 1
224 447 m 1
 288 447 l 1
 288 60 l 1
 352 60 l 1
 352 0 l 1
 160 0 l 1
 160 60 l 1
 224 60 l 1
 224 447 l 1
EndSplineSet
Validated: 1
EndChar

StartChar: j
Encoding: 106 106 74
Width: 512
VWidth: 0
Flags: W
HStem: -205 64<160 280.161> 394 53<160 288> 560 80<288 352>
VStem: 288 64<-132.49 394 560 640>
LayerCount: 2
Back
Fore
SplineSet
288 640 m 1
 352 640 l 1
 352 560 l 1
 288 560 l 1
 288 640 l 1
288 394 m 1
 160 394 l 1
 160 447 l 1
 288 447 l 1
 352 447 l 1
 352 394 l 1
 352 -126 l 2
 352 -160 306 -205 272 -205 c 0
 232 -205 160 -205 160 -205 c 1
 160 -141 l 1
 160 -141 199 -141 236 -141 c 0
 269 -141 288 -122 288 -89 c 2
 288 394 l 1
EndSplineSet
Validated: 1
EndChar

StartChar: k
Encoding: 107 107 75
Width: 512
VWidth: 0
Flags: W
HStem: 0 21G<64 128 349.339 416> 224 64<128 159> 427 20G<355.698 416> 620 20G<64 128>
VStem: 64 64<0 224 288 640>
LayerCount: 2
Back
Fore
SplineSet
159 224 m 25
 128 224 l 25
 128 0 l 25
 64 0 l 25
 64 640 l 25
 128 640 l 25
 128 288 l 25
 159 288 l 25
 384 447 l 25
 416 447 l 25
 416 399 l 25
 223 261 l 25
 223 245 l 25
 416 32 l 25
 416 0 l 25
 368 0 l 25
 159 224 l 25
EndSplineSet
Validated: 1
EndChar

StartChar: l
Encoding: 108 108 76
Width: 512
VWidth: 0
Flags: W
HStem: 0 64<231.839 416> 620 20G<160 224>
VStem: 160 64<72.8218 640>
LayerCount: 2
Back
Fore
SplineSet
160 640 m 25
 224 640 l 25
 224 640 224 330 224 118 c 0
 224 85 243 64 276 64 c 0
 337 64 416 64 416 64 c 25
 416 0 l 25
 416 0 306 0 240 0 c 0
 206 0 160 47 160 81 c 0
 160 298 160 640 160 640 c 25
EndSplineSet
Validated: 1
EndChar

StartChar: m
Encoding: 109 109 77
Width: 512
VWidth: 0
Flags: W
HStem: 0 21G<64 128 384 448> 384 64<128 224 288 375.962>
VStem: 64 64<0 384> 224 64<128 384> 384 64<0 376.161>
CounterMasks: 1 38
LayerCount: 2
Back
Fore
SplineSet
64 0 m 25
 64 448 l 25
 224 448 l 25
 224 385 l 17
 288 385 l 1
 288 448 l 9
 368 448 l 2
 401 448 448 402 448 368 c 2
 448 0 l 25
 384 0 l 25
 384 331 l 2
 384 364 365 384 332 384 c 2
 288 384 l 25
 288 128 l 25
 224 128 l 25
 224 384 l 25
 128 384 l 25
 128 0 l 25
 64 0 l 25
EndSplineSet
Validated: 1
EndChar

StartChar: n
Encoding: 110 110 78
Width: 512
VWidth: 0
Flags: W
HStem: 0 21G<64 128 384 448> 384 64<128 376.161>
VStem: 64 64<0 384> 384 64<0 376.36>
LayerCount: 2
Back
Fore
SplineSet
64 0 m 25
 64 448 l 29
 64 448 252 448 368 448 c 4
 402 448 448 403 448 368 c 0
 448 228 448 0 448 0 c 25
 384 0 l 25
 384 0 384 196 384 332 c 0
 384 365 365 384 332 384 c 0
 245 384 128 384 128 384 c 25
 128 0 l 25
 64 0 l 25
EndSplineSet
Validated: 1
EndChar

StartChar: o
Encoding: 111 111 79
Width: 512
VWidth: 0
Flags: W
HStem: 0 64<136.038 375.962> 384 64<136.038 376.917>
VStem: 64 64<72.0384 375.962> 384 64<72.0384 375.962>
LayerCount: 2
Back
Fore
SplineSet
179 384 m 6
 147 384 128 365 128 333 c 6
 128 115 l 2
 128 83 148 64 180 64 c 2
 333 64 l 2
 365 64 384 83 384 115 c 2
 384 333 l 6
 384 365 365 384 333 384 c 6
 179 384 l 6
144 448 m 6
 369 448 l 6
 402 448 448 401 448 368 c 6
 448 80 l 2
 448 47 401 0 368 0 c 2
 144 0 l 2
 111 0 64 47 64 80 c 2
 64 368 l 6
 64 401 111 448 144 448 c 6
EndSplineSet
Validated: 1
EndChar

StartChar: p
Encoding: 112 112 80
Width: 512
VWidth: 0
Flags: W
HStem: -205 21G<64 128> 0 64<128 376.161> 384 64<128 376.161>
VStem: 64 64<-205 0 64 384> 384 64<72.8218 376.161>
LayerCount: 2
Back
Fore
SplineSet
128 64 m 25
 128 64 245 64 332 64 c 0
 365 64 384 85 384 118 c 0
 384 217 384 232 384 331 c 0
 384 364 365 384 332 384 c 0
 245 384 128 384 128 384 c 25
 128 64 l 25
64 -205 m 25
 64 448 l 29
 64 448 252 448 368 448 c 4
 402 448 448 402 448 368 c 0
 448 258 448 191 448 81 c 0
 448 47 402 0 368 0 c 0
 277 0 128 0 128 0 c 25
 128 -205 l 25
 64 -205 l 25
EndSplineSet
Validated: 1
EndChar

StartChar: q
Encoding: 113 113 81
Width: 512
VWidth: 0
Flags: W
HStem: -205 21G<384 448> 0 64<135.839 384> 384 64<135.839 384>
VStem: 64 64<72.8218 376.161> 384 64<-205 0 64 384>
LayerCount: 2
Back
Fore
SplineSet
384 64 m 25
 384 384 l 25
 384 384 267 384 180 384 c 4
 147 384 128 364 128 331 c 4
 128 232 128 217 128 118 c 4
 128 85 147 64 180 64 c 4
 267 64 384 64 384 64 c 25
448 -205 m 25
 384 -205 l 25
 384 0 l 25
 384 0 235 0 144 0 c 4
 110 0 64 47 64 81 c 4
 64 191 64 258 64 368 c 4
 64 402 110 448 144 448 c 4
 260 448 448 448 448 448 c 25
 448 -205 l 25
EndSplineSet
Validated: 1
EndChar

StartChar: r
Encoding: 114 114 82
Width: 512
VWidth: 0
Flags: W
HStem: 0 21G<64 128> 321 126<384 448> 383 64<135.752 384>
VStem: 64 64<0 375.36> 384 64<321 383>
LayerCount: 2
Back
Fore
SplineSet
64 0 m 25xb8
 64 367 l 2
 64 402 109 447 144 447 c 2xb8
 448 447 l 29
 448 321 l 29
 384 321 l 29xd8
 384 383 l 29
 180 383 l 2
 147 383 128 363 128 330 c 2
 128 0 l 25
 64 0 l 25xb8
EndSplineSet
Validated: 1
EndChar

StartChar: s
Encoding: 115 115 83
Width: 513
VWidth: 0
Flags: W
HStem: 0 64<66 375.49> 190 64<135.752 375.49> 384 64<136.51 449>
VStem: 64 64<261.839 376.281> 384 64<71.8392 182.161>
LayerCount: 2
Back
Fore
SplineSet
448 80 m 0
 448 46 403 0 369 0 c 2
 66 0 l 25
 66 64 l 25
 332 64 l 2
 366 64 384 84 384 117 c 2
 384 137 l 2
 384 170 365 190 332 190 c 2
 144 190 l 2
 109 190 64 236 64 270 c 2
 64 368 l 2
 64 403 109 448 143 448 c 2
 449 448 l 25
 449 384 l 25
 180 384 l 2
 147 384 128 363 128 330 c 2
 128 307 l 2
 128 274 147 254 180 254 c 2
 369 254 l 2
 403 254 448 208 448 174 c 0
 448 80 l 0
EndSplineSet
Validated: 1
EndChar

StartChar: t
Encoding: 116 116 84
Width: 512
VWidth: 0
Flags: W
HStem: 0 64<232.822 416> 384 64<96 160 224 351> 620 20G<160 224>
VStem: 160 64<72.8218 384 448 640>
LayerCount: 2
Back
Fore
SplineSet
96 385 m 25
 96 448 l 25
 160 448 l 25
 160 640 l 25
 224 640 l 25
 224 448 l 25
 351 448 l 25
 351 384 l 25
 224 384 l 25
 224 384 224 229 224 117 c 0
 224 84 243 64 276 64 c 0
 337 64 416 64 416 64 c 25
 416 0 l 25
 416 0 307 0 241 0 c 0
 207 0 160 47 160 81 c 0
 160 197 160 385 160 385 c 25
 96 385 l 25
EndSplineSet
Validated: 1
EndChar

StartChar: u
Encoding: 117 117 85
Width: 512
VWidth: 0
Flags: W
HStem: 0 64<135.839 384> 427 20G<64 128 384 448>
VStem: 64 64<72.6226 447> 384 64<64 447>
LayerCount: 2
Back
Fore
SplineSet
448 447 m 25
 448 0 l 25
 448 0 260 0 144 0 c 0
 110 0 64 46 64 81 c 4
 64 221 64 447 64 447 c 25
 128 447 l 25
 128 447 128 253 128 117 c 4
 128 84 147 64 180 64 c 4
 267 64 384 64 384 64 c 29
 384 447 l 25
 448 447 l 25
EndSplineSet
Validated: 1
EndChar

StartChar: v
Encoding: 118 118 86
Width: 512
VWidth: 0
Flags: W
HStem: 0 21G<224 288> 427 20G<64 128 384 448>
VStem: 64 64<170.519 447> 384 64<171.229 447>
LayerCount: 2
Back
Fore
SplineSet
64 447 m 25
 128 447 l 25
 128 447 128 311 128 213 c 0
 128 191 157 162 176 143 c 24
 208 111 257 63 257 63 c 25
 257 63 305 112 336 143 c 4
 354 161 384 193 384 212 c 4
 384 310 384 447 384 447 c 29
 448 447 l 29
 448 447 448 291 448 193 c 4
 448 162 426 139 399 112 c 4
 356 69 288 0 288 0 c 29
 224 0 l 25
 224 0 156 69 112 112 c 0
 86 138 64 160 64 191 c 0
 64 290 64 447 64 447 c 25
EndSplineSet
Validated: 1
EndChar

StartChar: w
Encoding: 119 119 87
Width: 512
VWidth: 0
Flags: W
HStem: 0 64<136.038 224 288 384> 427 20G<64 128 384 448>
VStem: 64 64<72.8218 447> 224 64<64 319> 384 64<64 447>
CounterMasks: 1 38
LayerCount: 2
Back
Fore
SplineSet
448 447 m 25
 448 0 l 25
 288 0 l 25
 288 63 l 17
 224 63 l 1
 224 0 l 9
 224 0 172 0 144 0 c 0
 111 0 64 47 64 81 c 0
 64 222 64 447 64 447 c 25
 128 447 l 25
 128 447 128 254 128 118 c 0
 128 85 147 64 180 64 c 0
 204 64 224 64 224 64 c 25
 224 319 l 25
 288 319 l 25
 288 64 l 25
 384 64 l 25
 384 447 l 25
 448 447 l 25
EndSplineSet
Validated: 1
EndChar

StartChar: x
Encoding: 120 120 88
Width: 512
VWidth: 0
Flags: W
HStem: 0 21G<64 128 384 448> 427 20G<64 128 384 448>
VStem: 64 64<0 113.444 400 447> 384 64<0 115.716 400 447>
LayerCount: 2
Back
Fore
SplineSet
64 447 m 25
 128 447 l 25
 128 400 l 25
 237 290 l 25
 275 290 l 25
 384 400 l 25
 384 447 l 25
 448 447 l 25
 448 385 l 25
 320 249 l 25
 320 249 369 204 400 171 c 0
 424 145 448 118 448 93 c 2
 448 0 l 25
 384 0 l 25
 384 62 l 2
 384 98 372 105 347 131 c 0
 317 162 256 219 256 219 c 25
 256 219 196 162 166 131 c 0
 141 105 128 88 128 62 c 2
 128 0 l 25
 64 0 l 25
 64 93 l 2
 64 118 87 146 112 171 c 0
 145 204 190 250 190 250 c 25
 64 385 l 25
 64 447 l 25
EndSplineSet
Validated: 1
EndChar

StartChar: y
Encoding: 121 121 89
Width: 512
VWidth: 0
Flags: W
HStem: -205 64<64 376.161> 0 64<136.068 384> 427 20G<64 128 384 448>
VStem: 64 64<72.6226 447> 384 64<-132.49 0 64 447>
LayerCount: 2
Back
Fore
SplineSet
64 447 m 25
 128 447 l 25
 128 447 128 254 128 117 c 0
 128 84 148 64 181 64 c 0
 267 64 384 64 384 64 c 25
 384 447 l 25
 448 447 l 25
 448 447 448 91 448 -126 c 0
 448 -160 402 -205 368 -205 c 0
 252 -205 64 -205 64 -205 c 25
 64 -141 l 25
 64 -141 220 -141 332 -141 c 0
 365 -141 384 -122 384 -89 c 0
 384 -52 384 0 384 0 c 25
 384 0 235 0 144 0 c 0
 110 0 64 46 64 81 c 0
 64 222 64 447 64 447 c 25
EndSplineSet
Validated: 1
EndChar

StartChar: z
Encoding: 122 122 90
Width: 512
VWidth: 0
Flags: W
HStem: 0 64<161 448> 384 64<64 384>
LayerCount: 2
Back
Fore
SplineSet
64 448 m 25
 446 448 l 25
 446 351 l 25
 161 64 l 25
 448 64 l 25
 448 0 l 25
 66 0 l 25
 66 64 l 25
 384 384 l 25
 64 384 l 25
 64 448 l 25
EndSplineSet
Validated: 1
EndChar

StartChar: braceleft
Encoding: 123 123 91
Width: 512
VWidth: 0
Flags: W
HStem: -128 64<264.51 448> 256 128<64 144> 704 64<263.64 448>
VStem: 192 64<-55.1782 208 432 696.161>
CounterMasks: 1 e0
LayerCount: 2
Back
Fore
SplineSet
272 768 m 4
 338 768 448 768 448 768 c 29
 448 704 l 29
 448 704 369 704 308 704 c 4
 275 704 256 685 256 652 c 4
 256 547 256 399 256 399 c 25
 192 335 l 25
 192 304 l 25
 256 240 l 25
 256 240 256 94 256 -11 c 0
 256 -44 275 -64 308 -64 c 0
 369 -64 448 -64 448 -64 c 25
 448 -128 l 25
 448 -128 337 -128 271 -128 c 0
 237 -128 192 -81 192 -47 c 0
 192 50 192 208 192 208 c 25
 144 256 l 25
 64 256 l 25
 64 384 l 25
 145 384 l 25
 192 432 l 25
 192 432 192 592 192 688 c 4
 192 722 237 768 272 768 c 4
EndSplineSet
Validated: 1
EndChar

StartChar: bar
Encoding: 124 124 92
Width: 512
VWidth: 0
Flags: W
VStem: 224 64<-63 703>
LayerCount: 2
Back
Fore
SplineSet
224 703 m 1
 288 703 l 1
 288 -63 l 1
 224 -63 l 1
 224 703 l 1
EndSplineSet
Validated: 1
EndChar

StartChar: braceright
Encoding: 125 125 93
Width: 512
VWidth: 0
Flags: W
HStem: -128 64<64 247.49> 256 128<368 448> 704 64<64 248.36>
VStem: 256 64<-55.1782 208 432 696.161>
CounterMasks: 1 e0
LayerCount: 2
Back
Fore
SplineSet
240 768 m 0
 275 768 320 722 320 688 c 0
 320 592 320 432 320 432 c 25
 367 384 l 25
 448 384 l 25
 448 256 l 25
 368 256 l 25
 320 208 l 25
 320 208 320 50 320 -47 c 0
 320 -81 275 -128 241 -128 c 0
 175 -128 64 -128 64 -128 c 25
 64 -64 l 25
 64 -64 143 -64 204 -64 c 0
 237 -64 256 -44 256 -11 c 0
 256 94 256 240 256 240 c 25
 320 304 l 25
 320 335 l 25
 256 399 l 25
 256 399 256 547 256 652 c 0
 256 685 237 704 204 704 c 0
 143 704 64 704 64 704 c 25
 64 768 l 25
 64 768 174 768 240 768 c 0
EndSplineSet
Validated: 1
EndChar

StartChar: asciitilde
Encoding: 126 126 94
Width: 512
VWidth: 0
Flags: W
HStem: 546 64<283.359 374.805> 642 64<135.141 215.652>
VStem: 64 64<546 635.329> 384 64<618.636 706>
LayerCount: 2
Back
Fore
SplineSet
64 546 m 25
 64 628 l 2
 64 658 121 706 161 706 c 6
 194 706 l 6
 257 706 275 610 318 610 c 2
 331 610 l 2
 364 610 384 629 384 663 c 6
 384 706 l 29
 448 706 l 29
 448 626 l 2
 448 596 391 546 351 546 c 2
 302 546 l 2
 250 546 217 642 187 642 c 6
 171 642 l 6
 148 642 128 624 128 590 c 2
 128 546 l 25
 64 546 l 25
EndSplineSet
Validated: 1
EndChar

StartChar: cent
Encoding: 162 162 98
Width: 512
VWidth: 0
Flags: W
HStem: 0 64<135.839 256 320 448> 384 64<136.51 256 320 448>
VStem: 64 64<72.8218 375.49> 256 64<-65 0 64 384 448 511>
LayerCount: 2
Back
Fore
SplineSet
256 511 m 1
 320 511 l 1
 320 448 l 1
 448 448 l 1
 448 384 l 1
 320 384 l 1
 320 64 l 1
 448 64 l 1
 448 0 l 1
 320 0 l 1
 320 -65 l 1
 256 -65 l 1
 256 0 l 1
 144 0 l 2
 110 0 64 47 64 81 c 2
 64 369 l 2
 64 403 109 448 143 448 c 2
 256 448 l 1
 256 511 l 1
256 64 m 1
 256 384 l 1
 180 384 l 2
 147 384 128 365 128 332 c 2
 128 117 l 2
 128 84 147 64 180 64 c 2
 256 64 l 1
EndSplineSet
Validated: 1
EndChar

StartChar: sterling
Encoding: 163 163 99
Width: 512
VWidth: 0
Flags: W
HStem: 0 64<64 97 161 448> 288 63<64 129 193 382> 576 64<201.822 343.161>
VStem: 129 64<129 288 351 566.666> 351 64<513 568.36>
LayerCount: 2
Back
Fore
SplineSet
210 640 m 2
 335 640 l 2
 369 640 415 595 415 560 c 2
 415 513 l 25
 351 513 l 25
 351 524 l 2
 351 557 332 576 299 576 c 2
 247 576 l 2
 214 576 193 557 193 524 c 2
 193 351 l 25
 382 351 l 25
 382 288 l 25
 193 288 l 25
 193 129 l 25
 161 64 l 25
 448 64 l 25
 448 0 l 25
 64 0 l 25
 64 64 l 25
 97 64 l 25
 129 129 l 25
 129 288 l 25
 64 288 l 25
 64 351 l 25
 129 351 l 25
 129 560 l 2
 129 595 176 640 210 640 c 2
EndSplineSet
Validated: 1
EndChar

StartChar: currency
Encoding: 164 164 100
Width: 512
VWidth: 0
Flags: W
VStem: 96 64<231.612 408.87> 352 64<230.21 408.87>
LayerCount: 2
Back
Fore
SplineSet
212 416 m 0
 179 416 160 397 160 364 c 2
 160 275 l 2
 160 242 180 223 213 223 c 0
 287 223 226 223 300 223 c 0
 333 223 352 242 352 275 c 2
 352 364 l 2
 352 397 333 416 300 416 c 0
 225 416 287 416 212 416 c 0
96 544 m 1
 193 544 l 1
 255 479 l 1
 257 479 l 1
 319 544 l 1
 416 544 l 1
 350 477 l 1
 381 467 416 429 416 399 c 2
 416 240 l 2
 416 211 381 173 350 163 c 1
 416 95 l 1
 321 95 l 1
 257 160 l 1
 255 160 l 1
 191 95 l 1
 96 95 l 1
 162 162 l 1
 130 172 96 211 96 240 c 2
 96 399 l 2
 96 429 131 467 162 477 c 1
 96 544 l 1
EndSplineSet
Validated: 1
EndChar

StartChar: yen
Encoding: 165 165 101
Width: 512
VWidth: 0
Flags: W
HStem: 0 21G<224 288> 63 64<96 224 288 416> 191 64<96 224 288 416> 620 20G<63 137.961 374.039 449>
VStem: 224 64<0 63 127 191 255 289>
LayerCount: 2
Back
Fore
SplineSet
63 640 m 25
 128 640 l 25
 256 383 l 25
 384 640 l 25
 449 640 l 25
 288 289 l 25
 288 255 l 25
 416 255 l 25
 416 191 l 25
 288 191 l 25
 288 127 l 25
 416 127 l 25
 416 63 l 25
 288 63 l 25
 288 0 l 25
 224 0 l 25
 224 63 l 25
 96 63 l 25
 96 127 l 25
 224 127 l 25
 224 191 l 25
 96 191 l 25
 96 255 l 25
 224 255 l 25
 224 289 l 25
 63 640 l 25
EndSplineSet
Validated: 1
EndChar

StartChar: BROKEN
Encoding: 166 166 102
Width: 512
VWidth: 0
Flags: W
VStem: 223 66<-65 255 384 703>
LayerCount: 2
Back
Fore
SplineSet
223 255 m 1
 289 255 l 1
 289 -65 l 1
 223 -65 l 1
 223 255 l 1
223 703 m 1
 289 703 l 1
 289 384 l 1
 223 384 l 1
 223 703 l 1
EndSplineSet
Validated: 1
EndChar

StartChar: section
Encoding: 167 167 103
Width: 512
VWidth: 0
Flags: W
HStem: -64 97<167.815 208> -64 64<209.02 344.161> 160 64<167.839 315.75> 416 64<196.25 344.161> 607 96<304 344.185> 640 63<167.839 302.98>
VStem: 96 64<232.822 408.326 516.505 632.248> 128 80<3.99609 33> 304 80<607 635.912> 352 64<7.75195 123.495 231.715 408.856>
LayerCount: 2
Back
Fore
SplineSet
416 111 m 2x3640
 416 16 l 2
 416 -19 370 -64 336 -64 c 2x7640
 191 -64 l 2
 156 -64 128 -21 128 33 c 1
 208 33 l 1xb140
 208 3 225 0 263 0 c 2
 299 0 l 2
 332 0 352 19 352 52 c 2
 352 75 l 2
 352 102 321 145 281 160 c 1
 176 160 l 2
 142 160 96 207 96 241 c 2
 96 399 l 2
 96 423 119 455 144 470 c 1
 127 484 96 511 96 529 c 2
 96 624 l 2
 96 659 142 703 176 703 c 2x7640
 321 703 l 2
 356 703 384 661 384 607 c 1
 304 607 l 1x3a80
 304 637 287 640 249 640 c 2
 213 640 l 2
 180 640 160 621 160 588 c 2
 160 565 l 2
 160 538 191 495 231 480 c 1
 336 480 l 2
 370 480 416 433 416 399 c 2
 416 241 l 2
 416 217 393 186 367 170 c 1
 384 157 416 129 416 111 c 2x3640
212 416 m 2
 179 416 160 397 160 364 c 2
 160 276 l 2
 160 243 180 224 213 224 c 2
 300 224 l 2
 333 224 352 243 352 276 c 2
 352 364 l 2
 352 397 333 416 300 416 c 2
 212 416 l 2
EndSplineSet
Validated: 1
EndChar

StartChar: dieresis
Encoding: 168 168 104
Width: 512
VWidth: 0
Flags: W
HStem: 512 95<128 191 321 384>
VStem: 128 63<512 607> 321 63<512 607>
LayerCount: 2
Back
Fore
SplineSet
321 607 m 1
 384 607 l 1
 384 512 l 1
 321 512 l 1
 321 607 l 1
128 607 m 1
 191 607 l 1
 191 512 l 1
 128 512 l 1
 128 607 l 1
EndSplineSet
Validated: 1
EndChar

StartChar: COPYRIGHT
Encoding: 169 169 105
Width: 512
VWidth: 0
Flags: W
HStem: 0 63<135.068 377.161> 128 63<232.839 351> 288 94<288 351> 321 61<231.857 288> 447 64<134.839 376.49>
VStem: 63 64<71.8392 439.161> 161 63<198.424 313.109> 288 63<288 321> 385 64<70.4241 439.161>
LayerCount: 2
Back
Fore
SplineSet
143 511 m 2xcf80
 370 511 l 2
 404 511 449 465 449 431 c 2
 449 80 l 2
 449 46 403 0 369 0 c 2
 143 0 l 2
 109 0 63 46 63 80 c 2
 63 431 l 2
 63 465 109 511 143 511 c 2xcf80
179 447 m 2
 146 447 127 428 127 395 c 2
 127 116 l 2
 127 83 147 63 180 63 c 2
 333 63 l 2
 366 63 385 83 385 116 c 2
 385 395 l 2
 385 428 366 447 333 447 c 2
 179 447 l 2
240 382 m 6xdf80
 351 382 l 5
 351 288 l 1
 288 288 l 1xef80
 288 321 l 1
 276 321 l 2
 243 321 224 301 224 268 c 2
 224 244 l 2
 224 211 243 191 276 191 c 2
 351 191 l 1
 351 128 l 1
 241 128 l 2
 207 128 161 174 161 208 c 2
 161 305 l 2
 161 339 206 382 240 382 c 6xdf80
EndSplineSet
Validated: 1
EndChar

StartChar: ordfeminine
Encoding: 170 170 106
Width: 512
VWidth: 0
Flags: W
HStem: 256 63<128 384> 384 63<191.405 321> 512 63<191.405 321> 640 63<160 318.894>
VStem: 128 63<447.93 509.443> 321 63<447 512 575 638.841>
LayerCount: 2
Back
Fore
SplineSet
160 703 m 1
 160 703 201 703 304 703 c 0
 338 703 384 658 384 624 c 0
 384 483 384 384 384 384 c 1
 384 384 324 384 208 384 c 0
 174 384 128 427 128 461 c 2
 128 496 l 2
 128 531 174 575 208 575 c 0
 298 575 321 575 321 575 c 1
 321 609 l 2
 321 638 307 640 283 640 c 2
 160 640 l 1
 160 703 l 1
321 512 m 1
 236 512 l 2
 208 512 191 510 191 490 c 2
 191 466 l 2
 191 450 202 447 220 447 c 2
 321 447 l 1
 321 512 l 1
128 319 m 1
 384 319 l 1
 384 256 l 1
 128 256 l 1
 128 319 l 1
EndSplineSet
Validated: 1
EndChar

StartChar: guillemotleft
Encoding: 171 171 107
Width: 512
VWidth: 0
Flags: W
HStem: 51 321
LayerCount: 2
Back
Fore
SplineSet
351 372 m 25
 449 372 l 25
 303 226 l 25
 303 196 l 25
 446 51 l 25
 350 51 l 25
 206 196 l 25
 206 226 l 25
 351 372 l 25
191 372 m 25
 288 372 l 25
 142 226 l 25
 142 196 l 25
 286 51 l 25
 190 51 l 25
 46 196 l 25
 46 226 l 25
 191 372 l 25
EndSplineSet
Validated: 513
EndChar

StartChar: NOT
Encoding: 172 172 108
Width: 512
VWidth: 0
Flags: W
HStem: 384 63<63 385>
VStem: 385 64<193 384>
LayerCount: 2
Back
Fore
SplineSet
449 447 m 1
 449 362 449 278 449 193 c 1
 385 193 l 1
 385 384 l 1
 63 384 l 1
 63 447 l 1
 191 447 321 447 449 447 c 1
EndSplineSet
Validated: 1
EndChar

StartChar: SOFT
Encoding: 173 173 109
Width: 512
VWidth: 0
Flags: W
HStem: 256 63<96 416>
VStem: 96 320<256 319>
LayerCount: 2
Back
Fore
SplineSet
96 319 m 1
 416 319 l 1
 416 256 l 1
 96 256 l 1
 96 319 l 1
EndSplineSet
Validated: 1
EndChar

StartChar: REGISTERED
Encoding: 174 174 110
Width: 512
VWidth: 0
Flags: W
HStem: 63 64<134.839 377.161> 287 63<223 288.209> 383 63<223 289.69> 512 63<134.839 376.49>
VStem: 63 64<134.839 504.143> 160 63<190 287 350 383> 289 63<190 285.071 349.988 383.079> 385 64<134.839 504.143>
LayerCount: 2
Back
Fore
SplineSet
143 575 m 0
 228 575 285 575 370 575 c 0
 404 575 449 530 449 496 c 0
 449 311 449 328 449 143 c 0
 449 109 403 63 369 63 c 0
 285 63 227 63 143 63 c 0
 109 63 63 109 63 143 c 0
 63 328 63 311 63 496 c 0
 63 530 109 575 143 575 c 0
179 512 m 0
 146 512 127 493 127 460 c 0
 127 286 127 353 127 179 c 0
 127 146 147 127 180 127 c 0
 254 127 259 127 333 127 c 0
 366 127 385 146 385 179 c 0
 385 353 385 286 385 460 c 0
 385 493 366 512 333 512 c 0
 258 512 254 512 179 512 c 0
223 383 m 1
 223 350 l 1
 262 350 l 2
 278 350 290 349 290 365 c 2
 290 370 l 2
 290 386 278 383 262 383 c 2
 223 383 l 1
321 295 m 1
 350 295 352 226 352 200 c 2
 352 190 l 1
 289 190 l 1
 289 257 l 2
 289 285 266 287 246 287 c 2
 223 287 l 1
 223 190 l 1
 160 190 l 1
 160 446 l 1
 313 446 l 2
 329 446 352 424 352 407 c 2
 352 341 l 2
 352 318 332 295 321 295 c 1
EndSplineSet
Validated: 1
EndChar

StartChar: macron
Encoding: 175 175 111
Width: 512
VWidth: 0
Flags: W
HStem: 703 64<128 384>
VStem: 128 256<703 767>
LayerCount: 2
Back
Fore
SplineSet
128 767 m 1
 384 767 l 1
 384 703 l 1
 128 703 l 1
 128 767 l 1
EndSplineSet
Validated: 1
EndChar

StartChar: DEGREE
Encoding: 176 176 112
Width: 512
VWidth: 0
Flags: W
HStem: 399 64<199.839 312.856> 593 63<198.424 313.576>
VStem: 128 63<470.839 585.143> 321 63<470.839 585.143>
LayerCount: 2
Back
Fore
SplineSet
208 656 m 2
 304 656 l 2
 338 656 384 611 384 577 c 2
 384 479 l 2
 384 445 337 399 303 399 c 2
 208 399 l 2
 174 399 128 445 128 479 c 2
 128 577 l 2
 128 611 174 656 208 656 c 2
244 593 m 2
 211 593 191 574 191 541 c 2
 191 515 l 2
 191 482 212 463 245 463 c 2
 268 463 l 2
 301 463 321 482 321 515 c 2
 321 541 l 2
 321 574 301 593 268 593 c 2
 244 593 l 2
EndSplineSet
Validated: 1
EndChar

StartChar: PLUS-MINUS
Encoding: 177 177 113
Width: 512
VWidth: 0
Flags: W
HStem: 63 64<96 416> 319 64<96 224 288 416>
VStem: 224 64<191 319 383 511>
LayerCount: 2
Back
Fore
SplineSet
224 511 m 1
 288 511 l 1
 288 383 l 1
 416 383 l 1
 416 319 l 1
 288 319 l 1
 288 191 l 1
 224 191 l 1
 224 319 l 1
 96 319 l 1
 96 383 l 1
 224 383 l 1
 224 511 l 1
96 127 m 1
 416 127 l 1
 416 63 l 1
 96 63 l 1
 96 127 l 1
EndSplineSet
Validated: 513
EndChar

StartChar: SUPERSCRIPT
Encoding: 178 178 114
Width: 512
VWidth: 0
Flags: W
HStem: 288 96<321 384> 288 63<224 321> 607 64<191.405 317.843>
VStem: 128 63<575 606.547> 321 63<351 384 543 602.511>
LayerCount: 2
Back
Fore
SplineSet
224 351 m 1x78
 321 351 l 1x78
 321 384 l 5
 384 384 l 5
 384 288 l 1xb8
 128 288 l 1
 128 351 l 1
 321 543 l 1
 321 562 l 2
 321 605 300 607 267 607 c 2
 229 607 l 2
 205 607 191 606 191 587 c 2
 191 575 l 1
 128 575 l 1
 128 607 l 2
 128 642 174 671 208 671 c 2
 303 671 l 2
 337 671 382 625 383 591 c 0
 383 576 384 569 384 556 c 2
 384 528 l 2
 384 511 352 479 337 464 c 2
 224 351 l 1x78
EndSplineSet
Validated: 1
EndChar

StartChar: SUPERSCRIPT
Encoding: 179 179 115
Width: 512
VWidth: 0
Flags: W
HStem: 275 64<191.405 313.143> 435 64<224 318.377> 595 63<191.405 320.53>
VStem: 128 63<339.794 371 563 594.152> 321 63<346.839 429.943 503.062 594.152>
LayerCount: 2
Back
Fore
SplineSet
128 563 m 1
 128 579 l 2
 128 614 174 658 208 658 c 2
 304 658 l 2
 338 658 383 614 383 579 c 2
 383 531 l 2
 383 487 341 471 341 471 c 1
 341 471 384 461 384 414 c 2
 384 355 l 2
 384 321 339 275 305 275 c 2
 208 275 l 2
 174 275 128 320 128 355 c 2
 128 371 l 1
 191 371 l 1
 191 359 l 2
 191 340 205 339 229 339 c 2
 267 339 l 2
 300 339 321 358 321 391 c 2
 321 403 l 2
 321 426 300 435 267 435 c 2
 224 435 l 1
 224 499 l 1
 267 499 l 2
 299 499 321 505 321 538 c 2
 321 584 l 2
 321 594 306 595 281 595 c 2
 229 595 l 2
 205 595 191 593 191 574 c 2
 191 563 l 1
 128 563 l 1
EndSplineSet
Validated: 1
EndChar

StartChar: acute
Encoding: 180 180 116
Width: 512
VWidth: 0
Flags: W
HStem: 500 160
VStem: 180 162
LayerCount: 2
Back
Fore
SplineSet
342 660 m 25
 342 607 l 25
 235 500 l 25
 180 500 l 25
 180 547 l 25
 303 660 l 25
 342 660 l 25
EndSplineSet
Validated: 1
EndChar

StartChar: MICRO
Encoding: 181 181 117
Width: 512
VWidth: 0
Flags: W
HStem: 0 63<392.573 480> 12 64<127 313.281> 429 20G<63 127 321 384>
VStem: 63 64<-193 12 76 449> 321 63<84.4057 449>
LayerCount: 2
Back
Fore
SplineSet
127 -193 m 1x78
 63 -193 l 1
 63 449 l 1
 127 449 l 1
 127 76 l 1
 267 76 l 2x78
 300 76 321 95 321 128 c 2
 321 449 l 1
 384 449 l 1
 384 116 l 2
 384 87 402 63 436 63 c 2
 480 63 l 1
 480 0 l 1
 400 0 l 2xb8
 385 0 349 15 345 30 c 1
 332 20 317 12 304 12 c 2
 127 12 l 1
 127 -193 l 1x78
EndSplineSet
Validated: 1
EndChar

StartChar: paragraph
Encoding: 182 182 118
Width: 512
VWidth: 0
Flags: W
HStem: 0 21G<224 288 385 449> 319 64<136.804 224> 577 63<136.805 224 288 385>
VStem: 63 66<391.51 568.161> 224 64<0 319 383 577> 385 64<0 577>
LayerCount: 2
Back
Fore
SplineSet
449 0 m 1
 385 0 l 1
 385 577 l 1
 288 577 l 1
 288 0 l 1
 224 0 l 1
 224 319 l 1
 145 319 l 2
 111 319 63 364 63 398 c 2
 63 560 l 2
 63 594 110 640 145 640 c 0
 246 640 348 640 449 640 c 1
 449 0 l 1
224 383 m 1
 224 577 l 1
 182 577 l 2
 148 577 129 557 129 524 c 2
 129 435 l 2
 129 402 148 383 181 383 c 2
 224 383 l 1
EndSplineSet
Validated: 1
EndChar

StartChar: periodcentered
Encoding: 183 183 119
Width: 512
VWidth: 0
Flags: W
HStem: 275 97<224 288>
VStem: 224 64<275 372>
LayerCount: 2
Back
Fore
SplineSet
224 372 m 1
 288 372 l 1
 288 275 l 1
 224 275 l 1
 224 372 l 1
EndSplineSet
Validated: 1
EndChar

StartChar: cedilla
Encoding: 184 184 120
Width: 512
VWidth: 0
Flags: W
HStem: -190 63<160 214.513> -20 20G<223 289>
VStem: 223 66<-119.87 0>
LayerCount: 2
Back
Fore
SplineSet
223 0 m 25
 289 0 l 25
 289 0 289 -72 289 -112 c 0
 289 -146 242 -190 208 -190 c 0
 192 -190 160 -190 160 -190 c 25
 160 -127 l 25
 160 -127 160 -127 171 -127 c 0
 204 -127 223 -108 223 -75 c 0
 223 -39 223 0 223 0 c 25
EndSplineSet
Validated: 1
EndChar

StartChar: SUPERSCRIPT
Encoding: 185 185 121
Width: 512
VWidth: 0
Flags: W
HStem: 275 64<160 224 288 352>
VStem: 224 64<339 563>
LayerCount: 2
Back
Fore
SplineSet
160 531 m 25
 160 596 l 25
 224 659 l 25
 288 659 l 25
 288 339 l 25
 352 339 l 25
 352 275 l 25
 160 275 l 25
 160 339 l 25
 224 339 l 25
 224 563 l 25
 191 531 l 25
 160 531 l 25
EndSplineSet
Validated: 1
EndChar

StartChar: ordmasculine
Encoding: 186 186 122
Width: 512
VWidth: 0
Flags: W
HStem: 244 63<128 384> 372 63<199.839 313.576> 595 63<198.424 313.143>
VStem: 128 63<443.839 587.143> 321 63<443.839 587.143>
LayerCount: 2
Back
Fore
SplineSet
128 307 m 1
 384 307 l 1
 384 244 l 1
 128 244 l 1
 128 307 l 1
208 658 m 2
 305 658 l 2
 339 658 384 613 384 579 c 2
 384 452 l 2
 384 418 338 372 304 372 c 2
 208 372 l 2
 174 372 128 418 128 452 c 2
 128 579 l 2
 128 613 174 658 208 658 c 2
244 595 m 2
 211 595 191 576 191 543 c 2
 191 487 l 2
 191 454 212 435 245 435 c 2
 268 435 l 2
 301 435 321 454 321 487 c 2
 321 543 l 2
 321 576 301 595 268 595 c 2
 244 595 l 2
EndSplineSet
Validated: 1
EndChar

StartChar: guillemotright
Encoding: 187 187 123
Width: 512
VWidth: 0
Flags: W
HStem: 51 321
LayerCount: 2
Back
Fore
SplineSet
160 372 m 25
 305 226 l 25
 305 196 l 25
 161 51 l 25
 66 51 l 25
 209 196 l 25
 209 226 l 25
 63 372 l 25
 160 372 l 25
319 372 m 25
 465 226 l 25
 465 196 l 25
 321 51 l 25
 225 51 l 25
 369 196 l 25
 369 226 l 25
 223 372 l 25
 319 372 l 25
EndSplineSet
Validated: 513
EndChar

StartChar: VULGAR
Encoding: 188 188 124
Width: 512
VWidth: 0
Flags: W
HStem: -32 65<288 351 415 480> 384 63<32 96 160 224> 640 21G<32 83.625>
VStem: 96 64<447 672> 224 64<33 223> 351 64<-128 -32 33 160>
LayerCount: 2
Back
Fore
SplineSet
416 544 m 25
 480 544 l 25
 480 495 l 25
 96 111 l 25
 32 111 l 25
 32 159 l 25
 416 544 l 25
224 223 m 1
 288 223 l 1
 288 33 l 1
 351 33 l 1
 351 160 l 1
 415 160 l 1
 415 33 l 1
 480 33 l 1
 480 -32 l 1
 415 -32 l 1
 415 -128 l 1
 351 -128 l 1
 351 -32 l 1
 309 -32 266 -32 224 -32 c 1
 224 53 224 138 224 223 c 1
32 640 m 25
 32 705 l 25
 96 768 l 25
 160 768 l 25
 160 447 l 25
 224 447 l 25
 224 384 l 25
 32 384 l 25
 32 447 l 25
 96 447 l 25
 96 672 l 25
 63 640 l 25
 32 640 l 25
EndSplineSet
Validated: 1
EndChar

StartChar: VULGAR
Encoding: 189 189 125
Width: 512
VWidth: 0
Flags: W
HStem: -129 95<417 480> -129 63<321 417> 190 65<290.052 413.843> 385 64<32 96 160 224> 641 21G<32 83.625>
VStem: 96 64<449 673> 224 65<159 189.547> 417 63<-66 -34 126 187.1>
LayerCount: 2
Back
Fore
SplineSet
32 641 m 1x3f
 32 706 l 1
 96 769 l 1
 160 769 l 1
 160 449 l 1
 224 449 l 1
 224 385 l 1
 32 385 l 1
 32 449 l 1
 96 449 l 1
 96 673 l 1
 63 641 l 1
 32 641 l 1x3f
321 -66 m 1x7f
 417 -66 l 1x7f
 417 -34 l 1
 480 -34 l 1
 480 -129 l 1xbf
 224 -129 l 1
 224 -66 l 1
 417 126 l 1
 417 145 l 2
 417 188 397 190 364 190 c 2
 341 190 l 2
 336 190 331 190 327 190 c 0
 303 190 289 189 289 170 c 0
 289 159 l 1
 224 159 l 1
 224 159 224 175 224 190 c 0
 224 215 271 255 305 255 c 0
 389 255 315 255 399 255 c 0
 433 255 478 208 479 174 c 0
 479 159 480 152 480 139 c 2
 480 112 l 2
 480 95 448 62 433 47 c 2
 321 -66 l 1x7f
416 544 m 1
 480 544 l 1
 480 495 l 1
 96 111 l 1
 32 111 l 1
 32 159 l 1
 416 544 l 1
EndSplineSet
Validated: 1
EndChar

StartChar: VULGAR
Encoding: 190 190 126
Width: 512
VWidth: 0
Flags: W
HStem: -32 65<288 351 415 480> 383 63<96.3392 214.501> 543 64<128 220.943> 702 65<96.3392 221.894>
VStem: 32 64<447.794 478 671 701.26> 224 64<33 223 454.839 538.816 611.219 701.26> 351 64<-128 -32 33 160>
LayerCount: 2
Back
Fore
SplineSet
416 544 m 25
 480 544 l 25
 480 495 l 25
 96 111 l 25
 32 111 l 25
 32 159 l 25
 416 544 l 25
224 223 m 1
 288 223 l 1
 288 33 l 1
 351 33 l 1
 351 160 l 1
 415 160 l 1
 415 33 l 1
 480 33 l 1
 480 -32 l 1
 415 -32 l 1
 415 -128 l 1
 351 -128 l 1
 351 -32 l 1
 288 -32 l 1
 224 -32 l 1
 224 33 l 1
 224 223 l 1
32 671 m 1
 32 671 32 671 32 686 c 0
 32 721 79 767 113 767 c 0
 197 767 123 767 207 767 c 0
 241 767 287 721 287 686 c 2
 287 639 l 2
 287 595 245 580 245 580 c 1
 245 580 288 568 288 521 c 2
 288 463 l 2
 288 429 242 383 208 383 c 0
 123 383 198 383 113 383 c 0
 79 383 32 428 32 463 c 0
 32 478 32 478 32 478 c 1
 96 478 l 1
 96 478 96 478 96 467 c 0
 96 448 110 446 134 446 c 0
 138 446 143 446 148 446 c 2
 171 446 l 2
 204 446 223 466 223 499 c 2
 223 511 l 2
 223 534 204 543 171 543 c 2
 128 543 l 1
 128 607 l 1
 171 607 l 2
 203 607 223 612 223 645 c 2
 223 691 l 2
 223 701 208 702 183 702 c 0
 179 702 175 702 170 702 c 2
 148 702 l 2
 143 702 138 702 134 702 c 0
 110 702 96 701 96 682 c 0
 96 671 96 671 96 671 c 1
 32 671 l 1
EndSplineSet
Validated: 1
EndChar

StartChar: AE
Encoding: 198 198 134
Width: 512
VWidth: 0
Flags: W
HStem: 1 64<326.839 449> 289 63<127 255 318 449> 577 63<135.822 247.162 326.286 447>
VStem: 63 64<0 289 352 569.143> 255 63<73.0684 289 352 568.615>
LayerCount: 2
Back
Fore
SplineSet
255 524 m 2
 255 557 236 577 203 577 c 2
 181 577 l 2
 147 577 127 558 127 524 c 0
 127 449 127 352 127 352 c 1
 255 352 l 1
 255 524 l 2
63 0 m 1
 63 0 63 344 63 561 c 0
 63 595 110 640 144 640 c 2
 240 640 l 2
 255 640 272 630 287 617 c 1
 302 630 320 640 335 640 c 2
 447 640 l 1
 447 577 l 1
 372 577 l 2
 338 577 318 556 318 523 c 0
 318 449 318 352 318 352 c 1
 449 352 l 1
 449 289 l 1
 318 289 l 1
 318 289 318 192 318 118 c 0
 318 85 338 65 371 65 c 2
 449 65 l 1
 449 1 l 1
 335 1 l 2
 301 1 255 47 255 81 c 2
 255 289 l 1
 127 289 l 1
 127 0 l 1
 63 0 l 1
EndSplineSet
Validated: 1
EndChar

StartChar: LATIN
Encoding: 199 199 135
Width: 512
VWidth: 0
Flags: W
HStem: -183 63<201 257.161> 1 64<134.194 265 329 449> 577 63<136.521 449>
VStem: 65 62<73.5098 568.161> 265 64<-112.143 1>
LayerCount: 2
Back
Fore
SplineSet
65 80 m 2
 65 560 l 2
 65 594 109 640 143 640 c 2
 449 640 l 1
 449 577 l 1
 181 577 l 2
 147 577 127 556 127 523 c 2
 127 117 l 2
 127 84 146 65 179 65 c 2
 449 65 l 1
 449 1 l 1
 329 1 l 1
 329 -104 l 2
 329 -138 283 -183 249 -183 c 2
 201 -183 l 1
 201 -120 l 1
 212 -120 l 2
 245 -120 265 -101 265 -68 c 6
 265 1 l 5
 144 1 l 2
 110 1 65 46 65 80 c 2
EndSplineSet
Validated: 1
EndChar

StartChar: LATIN
Encoding: 208 208 144
Width: 512
VWidth: 0
Flags: W
HStem: 0 63<127 375.932> 287 63<0 63 127 255> 577 63<127 375.501>
VStem: 63 64<63 287 350 577> 384 65<71.8392 568.161>
LayerCount: 2
Back
Fore
SplineSet
63 640 m 1
 369 640 l 2
 403 640 449 594 449 560 c 2
 449 80 l 2
 449 46 403 0 368 0 c 2
 63 0 l 1
 63 287 l 1
 0 287 l 1
 0 350 l 1
 63 350 l 1
 63 640 l 1
127 350 m 1
 255 350 l 1
 255 287 l 1
 127 287 l 1
 127 63 l 1
 331 63 l 2
 364 63 384 83 384 116 c 2
 384 523 l 2
 384 556 365 577 332 577 c 2
 127 577 l 1
 127 350 l 1
EndSplineSet
Validated: 1
EndChar

StartChar: MULTIPLICATION
Encoding: 215 215 151
Width: 512
VWidth: 0
Flags: W
LayerCount: 2
Back
Fore
SplineSet
403 506 m 25
 449 461 l 25
 301 313 l 25
 449 166 l 25
 403 121 l 25
 256 268 l 25
 109 121 l 25
 63 166 l 25
 211 313 l 25
 63 461 l 25
 109 506 l 25
 256 358 l 25
 403 506 l 25
EndSplineSet
Validated: 1
EndChar

StartChar: Oslash
Encoding: 216 216 152
Width: 512
VWidth: 0
Flags: W
HStem: -12 63<154.33 377.161> 563 64<135.857 322>
VStem: 65 63<165 555.161> 385 64<58.1689 519.859>
LayerCount: 2
Back
Fore
SplineSet
447 691 m 1
 447 648 l 1
 423 598 l 1
 437 583 449 563 449 547 c 2
 449 68 l 2
 449 34 403 -12 369 -12 c 2
 144 -12 l 6
 137 -12 129 -10 122 -6 c 5
 87 -76 l 5
 33 -76 l 5
 32 -33 l 5
 70 46 l 5
 67 53 65 61 65 68 c 6
 65 547 l 6
 65 581 110 627 144 627 c 6
 352 627 l 1
 384 691 l 1
 447 691 l 1
180 563 m 6
 147 563 128 544 128 511 c 6
 128 165 l 5
 322 563 l 1
 180 563 l 6
384 520 m 1
 154 57 l 5
 161 53 171 51 181 51 c 6
 333 51 l 2
 366 51 385 70 385 103 c 2
 385 511 l 2
 385 514 385 517 384 520 c 1
EndSplineSet
Validated: 1
EndChar

StartChar: LATIN
Encoding: 222 222 158
Width: 512
VWidth: 0
Flags: W
HStem: 0 63<127 377.161> 384 63<127 377.161>
VStem: 63 64<-128 0 63 384 447 575> 385 64<70.4241 376.143>
LayerCount: 2
Back
Fore
SplineSet
127 384 m 29
 127 63 l 29
 333 63 l 2
 366 63 385 83 385 116 c 2
 385 331 l 2
 385 364 366 384 333 384 c 2
 127 384 l 29
63 575 m 25
 127 575 l 29
 127 447 l 29
 369 447 l 2
 403 447 449 402 449 368 c 2
 449 80 l 2
 449 46 403 0 369 0 c 2
 127 0 l 29
 127 -128 l 29
 63 -128 l 25
 63 575 l 25
EndSplineSet
Validated: 1
EndChar

StartChar: germandbls
Encoding: 223 223 159
Width: 512
VWidth: 0
Flags: W
HStem: 0 63<165.438 375.479> 319 64<127 311.248> 575 64<127 310.49>
VStem: 63 64<0 43 105.403 319 383 575> 319 64<391.104 567.161> 384 63<72.0384 311.389>
LayerCount: 2
Back
Fore
SplineSet
63 0 m 1
 63 639 l 1
 304 639 l 2
 338 639 383 593 383 559 c 2
 383 417 l 2
 383 370 374 371 358 361 c 0
 358 358 447 353 447 287 c 6
 447 80 l 6
 447 47 403 0 369 0 c 2
 191 0 l 2
 175 0 138 15 127 43 c 1
 127 0 l 1
 63 0 l 1
127 383 m 1
 267 383 l 2
 300 383 319 403 319 436 c 2
 319 523 l 2
 319 556 300 575 267 575 c 2
 127 575 l 1
 127 383 l 1
216 63 m 2
 332 63 l 2
 365 63 384 84 384 117 c 2
 384 266 l 2
 384 299 365 319 332 319 c 2
 126 319 l 1
 126 193 l 2
 126 115 169 63 216 63 c 2
EndSplineSet
Validated: 1
EndChar

StartChar: ae
Encoding: 230 230 166
Width: 512
VWidth: 0
Flags: W
HStem: -12 63<134.839 255.625 326.424 512> 175 64<319 449> 196 63<134.839 256> 372 63<95 247.97 327.068 449>
VStem: 63 64<58.1689 187.36> 256 63<58.752 175 259 363.615> 449 63<239 372>
LayerCount: 2
Back
Fore
SplineSet
234 -12 m 2xde
 143 -12 l 2
 109 -12 63 34 63 68 c 2
 63 179 l 2
 63 214 109 259 143 259 c 2
 256 259 l 1xbe
 256 318 l 2
 256 352 237 372 204 372 c 2
 95 372 l 1
 95 435 l 1
 240 435 l 2
 255 435 273 426 288 413 c 1
 302 426 320 435 335 435 c 2
 512 435 l 1
 512 175 l 1
 319 175 l 1
 319 103 l 2
 319 70 339 51 372 51 c 2
 512 51 l 1
 512 -12 l 1
 336 -12 l 2
 322 -12 304 -4 290 9 c 1
 275 -4 254 -12 234 -12 c 2xde
179 196 m 2
 146 196 127 176 127 143 c 2
 127 103 l 2
 127 70 146 51 179 51 c 2
 256 51 l 1
 256 99 256 148 256 196 c 1
 179 196 l 2
319 239 m 1xde
 449 239 l 1
 449 372 l 1
 372 372 l 2
 339 372 319 351 319 318 c 2
 319 239 l 1xde
EndSplineSet
Validated: 1
EndChar

StartChar: LATIN
Encoding: 231 231 167
Width: 512
VWidth: 0
Flags: W
HStem: -184 63<201 256.395> 0 63<135.822 264 330 449> 384 63<136.499 449>
VStem: 63 65<70.4241 376.87> 264 66<-113.143 0>
LayerCount: 2
Back
Fore
SplineSet
143 447 m 0
 259 447 449 447 449 447 c 1
 449 384 l 1
 449 384 292 384 180 384 c 0
 147 384 128 365 128 332 c 0
 128 233 128 215 128 116 c 0
 128 83 147 63 180 63 c 0
 292 63 449 63 449 63 c 1
 449 0 l 1
 330 0 l 1
 330 -105 l 2
 330 -139 283 -184 248 -184 c 0
 232 -184 201 -184 201 -184 c 1
 201 -121 l 1
 201 -121 201 -121 211 -121 c 0
 244 -121 264 -102 264 -69 c 2
 264 0 l 1
 144 0 l 2
 110 0 63 46 63 80 c 0
 63 190 63 259 63 369 c 0
 63 403 109 447 143 447 c 0
EndSplineSet
Validated: 1
EndChar

StartChar: LATIN
Encoding: 236 236 172
Width: 512
VWidth: 0
Flags: W
HStem: 0 21G<224 288> 427 20G<224 288> 512 160
VStem: 160 162 224 64<0 447>
LayerCount: 2
Back
Fore
SplineSet
224 447 m 25xe8
 288 447 l 25
 288 0 l 25
 224 0 l 25
 224 447 l 25xe8
EndSplineSet
Refer: 64 96 N 1 0 0 1 -20 12 2
Validated: 1
EndChar

StartChar: LATIN
Encoding: 237 237 173
Width: 512
VWidth: 0
Flags: W
HStem: 0 21G<224 288> 427 20G<224 288> 512 160
VStem: 159 162 224 64<0 447>
LayerCount: 2
Back
Fore
SplineSet
224 447 m 25xe8
 288 447 l 25
 288 0 l 25
 224 0 l 25
 224 447 l 25xe8
EndSplineSet
Refer: 116 180 N 1 0 0 1 -21 12 2
Validated: 1
EndChar

StartChar: LATIN
Encoding: 238 238 174
Width: 512
VWidth: 0
Flags: W
HStem: 0 21G<224 288> 427 20G<224 288> 630 66<240 272>
VStem: 94 324 224 64<0 447>
LayerCount: 2
Back
Fore
SplineSet
224 447 m 25xe8
 288 447 l 25
 288 0 l 25
 224 0 l 25
 224 447 l 25xe8
EndSplineSet
Refer: 62 94 N 1 0 0 1 0 5 2
Validated: 1
EndChar

StartChar: LATIN
Encoding: 239 239 175
Width: 512
VWidth: 0
Flags: W
HStem: 0 21G<224 288> 427 20G<224 288> 542 95<128 191 321 384>
VStem: 128 63<542 637> 224 64<0 447> 321 63<542 637>
CounterMasks: 1 1c
LayerCount: 2
Back
Fore
SplineSet
224 447 m 1
 288 447 l 1
 288 0 l 1
 224 0 l 1
 224 447 l 1
EndSplineSet
Refer: 104 168 S 1 0 0 1 0 30 2
Validated: 1
EndChar

StartChar: LATIN
Encoding: 240 240 176
Width: 512
VWidth: 0
Flags: W
HStem: 1 64<134.839 377.161> 384 63<134.839 312>
VStem: 63 64<72.8392 376.143> 385 64<72.8392 376.41>
LayerCount: 2
Back
Fore
SplineSet
179 384 m 2
 146 384 127 365 127 332 c 2
 127 117 l 2
 127 84 147 65 180 65 c 2
 333 65 l 2
 366 65 385 84 385 117 c 2
 385 332 l 2
 385 365 366 384 333 384 c 2
 179 384 l 2
272 666 m 1
 318 666 l 1
 318 617 l 1
 270 569 l 1
 408 432 l 1
 431 416 449 390 449 368 c 2
 449 81 l 2
 449 47 403 1 369 1 c 2
 143 1 l 2
 109 1 63 47 63 81 c 2
 63 368 l 2
 63 402 109 447 143 447 c 2
 312 447 l 1
 230 529 l 1
 175 473 l 1
 127 473 l 1
 127 522 l 1
 175 569 l 1
 127 617 l 1
 127 666 l 1
 171 666 l 1
 220 615 l 1
 272 666 l 1
EndSplineSet
Validated: 1
EndChar

StartChar: DIVISION
Encoding: 247 247 183
Width: 512
VWidth: 0
Flags: W
HStem: 96 97<224 288> 256 63<96 416> 384 96<224 288>
VStem: 224 64<96 193 384 480>
LayerCount: 2
Back
Fore
SplineSet
224 96 m 1
 224 193 l 1
 288 193 l 1
 288 96 l 1
 224 96 l 1
224 384 m 1
 224 480 l 1
 288 480 l 1
 288 384 l 1
 224 384 l 1
96 319 m 1
 416 319 l 1
 416 256 l 1
 96 256 l 1
 96 319 l 1
EndSplineSet
Validated: 1
EndChar

StartChar: oslash
Encoding: 248 248 184
Width: 512
VWidth: 0
Flags: W
HStem: 0 63<152.376 376.178> 383 63<135.857 360.624>
VStem: 65 63<142 375.143> 385 64<71.8392 302>
LayerCount: 2
Back
Fore
SplineSet
385 302 m 1
 152 71 l 1
 160 66 170 63 181 63 c 2
 332 63 l 2
 365 63 385 83 385 116 c 2
 385 302 l 1
180 383 m 2
 147 383 128 364 128 331 c 2
 128 142 l 1
 361 376 l 1
 353 381 343 383 332 383 c 2
 180 383 l 2
32 -1 m 1
 32 46 l 1
 65 79 l 1
 65 367 l 2
 65 401 110 446 144 446 c 0
 229 446 284 446 369 446 c 0
 383 446 399 438 413 427 c 1
 432 446 l 1
 480 446 l 1
 480 398 l 1
 449 367 l 1
 449 182 449 265 449 80 c 0
 449 46 402 0 368 0 c 2
 144 0 l 2
 130 0 114 8 100 19 c 1
 80 -1 l 1
 32 -1 l 1
EndSplineSet
Validated: 1
EndChar

StartChar: LATIN
Encoding: 254 254 190
Width: 512
VWidth: 0
Flags: W
HStem: 0 63<127 377.161> 384 63<127 377.161> 619 20G<63 127>
VStem: 63 64<-193 0 63 384 447 639> 385 64<70.4241 376.143>
LayerCount: 2
Back
Fore
SplineSet
127 384 m 25
 127 63 l 25
 333 63 l 2
 366 63 385 83 385 116 c 2
 385 331 l 2
 385 364 366 384 333 384 c 2
 127 384 l 25
63 639 m 25
 127 639 l 25
 127 447 l 25
 369 447 l 2
 403 447 449 402 449 368 c 2
 449 80 l 2
 449 46 403 0 369 0 c 2
 127 0 l 25
 127 -193 l 25
 63 -193 l 25
 63 639 l 25
EndSplineSet
Validated: 1
EndChar

StartChar: uniE0A0
Encoding: 57504 57504 192
Width: 512
VWidth: 0
Flags: W
HStem: -205 21G<64 128>
VStem: 64 64<-205 135.198 305 782> 288 64<294.493 496>
LayerCount: 2
Fore
SplineSet
64 782 m 1
 128 782 l 1
 128 305 l 1
 64 268 l 1
 64 782 l 1
64 -205 m 1
 64 102 l 2
 64 233 288 261 288 328 c 2
 288 496 l 1
 183 496 l 1
 319 657 l 1
 448 496 l 1
 352 496 l 1
 352 298 l 2
 352 223 128 160 128 102 c 0
 128 62 128 -57 128 -134 c 0
 128 -173 128 -202 128 -205 c 1
 64 -205 l 1
EndSplineSet
Validated: 1
EndChar

StartChar: uniE0A1
Encoding: 57505 57505 193
Width: 509
VWidth: 0
Flags: W
HStem: 1 21G<160 224 279.049 352> 390 64<224.181 351>
VStem: 160 64<1 144 454.181 709> 288 64<160 321>
LayerCount: 2
Fore
SplineSet
160 709 m 25
 224 709 l 25
 224 480 l 2
 224 464 234 454 250 454 c 2
 351 454 l 25
 351 390 l 25
 200 390 l 2
 183 390 160 413 160 430 c 2
 160 709 l 25
160 321 m 25
 224 321 l 25
 288 160 l 25
 288 321 l 25
 352 321 l 25
 352 1 l 25
 288 1 l 25
 224 144 l 25
 224 1 l 25
 160 1 l 25
 160 321 l 25
EndSplineSet
Validated: 1
EndChar

StartChar: uniE0A2
Encoding: 57506 57506 194
Width: 512
VWidth: 0
Flags: W
HStem: 1 62<136.038 375.962> 333 62<192 320> 563 62<200.038 312.917>
VStem: 64 64<71.0731 325.059> 128 64<395 554.927> 224 64<119 276> 320 64<395 554.927> 384 64<71.0731 325.083>
LayerCount: 2
Fore
SplineSet
224 276 m 1xe4
 288 276 l 1
 288 119 l 1
 224 119 l 1
 224 276 l 1xe4
179 333 m 2
 147 333 128 314 128 282 c 2
 128 114 l 2
 128 82 148 63 180 63 c 2
 333 63 l 2
 365 63 384 82 384 114 c 2
 384 282 l 2xf5
 384 314 365 333 333 333 c 2
 304 333 l 1
 208 333 l 1
 179 333 l 2
208 625 m 2
 305 625 l 2
 338 625 384 580 384 547 c 2xee
 384 392 l 1
 414 382 448 345 448 317 c 2
 448 79 l 2
 448 46 401 1 368 1 c 2
 144 1 l 2
 111 1 64 46 64 79 c 2
 64 317 l 2xf5
 64 345 98 381 128 392 c 1
 128 547 l 2xec
 128 580 175 625 208 625 c 2
243 563 m 2
 211 563 192 544 192 512 c 2
 192 395 l 1
 244 395 l 1
 269 395 l 1
 320 395 l 1
 320 512 l 2
 320 544 301 563 269 563 c 2
 243 563 l 2
EndSplineSet
Validated: 1
EndChar

StartChar: uniE0B0
Encoding: 57520 57520 195
Width: 512
VWidth: 0
Flags: W
HStem: -205 21G<0 17.4659>
LayerCount: 2
Fore
SplineSet
0 819 m 25
 448 308 l 25
 0 -205 l 25
 0 819 l 25
EndSplineSet
Validated: 1
EndChar

StartChar: uniE0B1
Encoding: 57521 57521 196
Width: 512
VWidth: 0
Flags: W
HStem: -205 21G<0 17.4659>
LayerCount: 2
Fore
SplineSet
0 819 m 9
 448 308 l 25
 0 -205 l 17
 0 -114 l 1
 358 308 l 1
 0 729 l 1
 0 819 l 9
EndSplineSet
Validated: 1
EndChar

StartChar: uniE0B2
Encoding: 57522 57522 197
Width: 512
VWidth: 0
Flags: W
HStem: -205 21G<494.534 512>
LayerCount: 2
Fore
SplineSet
512 819 m 25
 512 -205 l 25
 64 308 l 25
 512 819 l 25
EndSplineSet
Validated: 1
EndChar

StartChar: uniE0B3
Encoding: 57523 57523 198
Width: 512
VWidth: 0
Flags: WO
HStem: -205 21G<494.534 512>
LayerCount: 2
Fore
SplineSet
512 819 m 17
 512 729 l 1
 154 308 l 1
 512 -114 l 1
 512 -205 l 9
 64 308 l 25
 512 819 l 17
EndSplineSet
EndChar
